<?xml version="1.0" standalone="no"?>
<!DOCTYPE svg PUBLIC "-//W3C//DTD SVG 20010904//EN"
 "http://www.w3.org/TR/2001/REC-SVG-20010904/DTD/svg10.dtd">
<svg version="1.0" xmlns="http://www.w3.org/2000/svg"
 width="3264.000000pt" height="3264.000000pt" viewBox="0 0 3264.000000 3264.000000"
 preserveAspectRatio="xMidYMid meet">
<metadata>
Created by potrace 1.14, written by Peter Selinger 2001-2017
</metadata>
<g transform="translate(0.000000,3264.000000) scale(0.100000,-0.100000)"
fill="#000000" stroke="none">
<path d="M7780 19124 c0 -7 -9 -14 -20 -17 -11 -3 -20 -1 -20 5 0 5 -6 6 -12
1 -13 -7 -36 -11 -115 -15 -24 -2 -43 -6 -43 -11 0 -4 -11 -5 -24 -3 -13 2
-27 2 -30 -2 -7 -6 -21 -9 -71 -15 -17 -2 -36 -6 -43 -11 -6 -4 -29 -8 -50
-10 -21 -1 -43 -5 -48 -9 -12 -7 -61 -18 -86 -20 -10 -1 -18 -5 -18 -9 0 -4
-9 -5 -20 -3 -11 2 -22 0 -25 -6 -4 -5 -17 -9 -31 -9 -13 0 -24 -4 -24 -9 0
-5 -11 -8 -25 -6 -14 1 -25 -2 -25 -7 0 -5 -4 -7 -9 -3 -5 3 -12 1 -16 -5 -4
-6 -11 -8 -16 -5 -5 4 -9 1 -9 -4 0 -6 -5 -11 -11 -11 -5 0 -7 5 -4 11 8 13
-37 -12 -47 -26 -5 -6 -8 -4 -8 5 0 13 -1 13 -10 0 -5 -8 -10 -11 -10 -6 0 5
-7 3 -15 -4 -8 -7 -15 -9 -15 -5 0 5 -8 1 -18 -8 -11 -10 -26 -14 -41 -10 -19
5 -22 3 -16 -7 6 -10 4 -12 -8 -7 -9 3 -23 -1 -32 -9 -11 -12 -15 -12 -15 -2
0 10 -2 11 -8 0 -8 -11 -46 -23 -79 -25 -7 0 -10 -4 -7 -8 2 -4 -20 -15 -50
-23 -30 -9 -58 -21 -61 -26 -3 -5 -12 -7 -20 -4 -8 4 -17 0 -20 -8 -3 -8 -12
-15 -20 -16 -8 -1 -22 -3 -30 -4 -8 -1 -15 -5 -15 -8 0 -8 -56 -24 -77 -23 -7
0 -10 -3 -7 -8 5 -9 0 -11 -28 -13 -7 -1 -16 -5 -20 -11 -4 -5 -11 -10 -15
-11 -4 0 -21 -6 -36 -12 -16 -7 -33 -12 -38 -12 -5 0 -9 -4 -9 -10 0 -5 -3 -9
-7 -8 -11 2 -47 -14 -53 -24 -3 -4 -16 -9 -29 -11 -12 -2 -26 -9 -30 -15 -4
-6 -17 -13 -30 -15 -12 -2 -27 -10 -32 -18 -5 -8 -9 -11 -9 -6 0 4 -10 1 -23
-8 -13 -8 -27 -12 -30 -8 -4 3 -7 1 -7 -6 0 -7 -4 -9 -10 -6 -5 3 -10 1 -10
-5 0 -6 -4 -9 -9 -5 -5 3 -15 -1 -23 -7 -7 -7 -35 -24 -63 -38 -27 -14 -52
-27 -55 -30 -3 -3 -27 -16 -55 -30 -27 -14 -51 -28 -53 -32 -2 -5 -12 -8 -23
-8 -10 0 -19 -5 -19 -11 0 -6 -7 -9 -15 -5 -8 3 -14 0 -12 -7 1 -7 -4 -11 -10
-9 -7 1 -13 -2 -13 -8 0 -5 -7 -10 -15 -10 -8 0 -15 -5 -15 -11 0 -6 -6 -9
-14 -6 -8 3 -17 -1 -20 -9 -3 -8 -12 -14 -21 -14 -8 0 -15 -5 -15 -10 0 -6 -6
-9 -12 -8 -7 2 -12 -3 -10 -10 1 -8 -2 -11 -9 -6 -7 4 -18 -1 -26 -12 -8 -10
-15 -18 -16 -17 -6 7 -46 -10 -42 -17 3 -5 -10 -14 -29 -21 -19 -7 -33 -16
-30 -21 3 -4 0 -8 -6 -8 -7 0 -24 -9 -40 -20 -15 -11 -31 -16 -35 -12 -5 4 -5
2 -1 -5 3 -7 -2 -14 -14 -18 -11 -3 -20 -11 -20 -16 0 -5 -7 -9 -15 -9 -9 0
-18 -7 -21 -15 -4 -8 -10 -12 -15 -9 -5 3 -9 0 -9 -7 0 -7 -3 -10 -6 -7 -3 3
-16 -5 -30 -19 -14 -14 -29 -21 -37 -17 -6 4 -9 4 -5 -1 9 -9 -29 -45 -47 -45
-7 0 -15 -7 -19 -15 -3 -8 -17 -20 -31 -25 -16 -6 -23 -14 -19 -22 4 -6 3 -8
-4 -4 -6 3 -14 0 -19 -8 -4 -8 -11 -15 -15 -15 -8 -1 -20 -11 -76 -61 -18 -17
-37 -30 -42 -30 -6 0 -10 -7 -10 -16 0 -8 -4 -13 -9 -9 -6 3 -15 -4 -21 -15
-6 -11 -18 -20 -26 -20 -8 0 -13 -4 -9 -9 3 -5 -4 -12 -15 -16 -11 -3 -19 -12
-17 -18 1 -7 -4 -11 -10 -9 -7 1 -13 -2 -13 -7 0 -12 -63 -76 -71 -74 -4 1
-12 -11 -19 -27 -7 -16 -17 -27 -25 -24 -7 3 -15 -5 -19 -21 -4 -14 -11 -23
-16 -20 -5 3 -11 -3 -15 -14 -3 -11 -13 -22 -21 -25 -8 -3 -12 -10 -9 -16 3
-5 2 -10 -4 -10 -5 0 -13 -9 -16 -21 -4 -11 -9 -18 -12 -15 -3 3 -20 -17 -37
-45 -18 -27 -35 -47 -39 -44 -4 3 -5 2 -2 -2 5 -7 -33 -74 -49 -85 -6 -4 -7
-8 -2 -8 5 0 3 -7 -4 -15 -7 -8 -9 -15 -4 -15 4 0 0 -6 -11 -13 -10 -8 -15
-19 -11 -26 4 -6 0 -14 -8 -17 -9 -3 -13 -10 -11 -15 3 -5 -1 -22 -10 -39 -8
-16 -15 -32 -15 -35 0 -3 0 -6 -1 -7 -9 -31 -12 -50 -13 -85 -1 -22 -5 -39
-10 -35 -5 3 -7 -4 -4 -15 3 -11 1 -28 -5 -38 -7 -14 -7 -16 3 -10 9 6 11 4 5
-6 -11 -17 -14 -49 -5 -49 4 0 6 -16 5 -35 0 -19 3 -35 7 -35 4 0 5 -6 2 -14
-3 -8 4 -33 14 -55 11 -23 16 -41 10 -41 -6 0 0 -9 13 -20 13 -10 20 -19 15
-20 -6 0 3 -14 20 -32 16 -17 22 -27 14 -23 -13 8 -13 6 -2 -8 11 -13 17 -14
28 -4 7 7 20 18 29 25 8 7 13 17 10 23 -4 5 -1 9 5 9 18 0 2 71 -20 90 -11 9
-16 21 -12 25 4 5 2 5 -4 2 -7 -4 -17 0 -24 8 -7 8 -9 15 -5 15 4 0 -4 9 -19
21 -18 14 -26 29 -24 48 1 14 -1 32 -6 39 -4 7 -2 12 5 12 6 0 9 8 6 20 -3 11
-1 22 4 25 4 3 6 12 2 20 -3 9 1 15 8 15 12 0 12 2 1 9 -11 6 -10 11 3 25 10
10 12 16 4 16 -9 0 -8 4 1 15 7 8 10 15 6 15 -4 0 0 14 9 30 9 17 13 30 9 30
-4 0 -2 6 3 13 6 6 13 25 17 40 4 17 11 25 18 21 7 -4 8 -3 4 4 -10 17 12 54
27 45 9 -5 9 -3 0 8 -9 11 -8 18 1 31 7 10 16 14 20 10 4 -4 6 -2 4 4 -4 15
51 114 64 114 6 0 9 3 5 6 -5 5 10 27 41 60 7 8 11 14 7 14 -3 0 0 6 7 14 7 8
16 12 21 9 4 -2 7 3 7 12 0 8 22 38 49 65 27 28 47 50 44 50 -3 0 16 20 41 45
26 25 51 45 56 45 6 0 9 3 9 8 -4 22 3 31 18 25 10 -4 14 -2 9 5 -3 6 3 13 14
17 11 4 18 11 15 16 -4 5 -1 9 4 9 6 0 26 15 45 33 64 60 101 91 109 89 4 -1
7 3 7 9 0 5 5 7 10 4 6 -4 9 -1 8 7 -2 7 3 12 10 10 6 -1 12 5 12 13 0 9 6 12
17 8 11 -4 14 -3 9 5 -4 7 -3 12 3 12 6 0 21 10 33 23 13 13 30 21 37 19 8 -3
11 0 7 7 -4 6 -3 11 2 11 5 0 19 9 32 20 13 11 29 20 37 20 8 0 12 4 8 9 -3 5
4 12 15 16 11 3 20 11 20 16 0 6 5 7 10 4 6 -3 10 -1 10 6 0 7 3 10 6 6 3 -3
14 2 25 11 11 9 22 16 24 15 3 -1 17 9 31 22 15 14 29 23 31 21 2 -2 16 7 30
20 14 13 32 24 39 24 8 0 14 4 14 9 0 10 39 27 53 23 5 -1 6 2 2 8 -3 5 1 10
9 10 9 0 16 5 16 11 0 5 4 8 8 5 5 -3 19 4 30 15 12 11 22 17 22 14 0 -4 13 3
29 14 15 11 31 18 35 14 3 -3 6 -2 6 4 0 6 20 19 45 30 25 10 45 22 45 26 0 5
5 5 10 2 6 -3 13 1 16 10 4 9 13 14 20 11 8 -3 14 0 14 6 0 6 3 8 7 5 3 -4 16
2 28 13 13 12 32 22 43 23 11 0 18 5 16 9 -3 4 2 9 10 9 36 3 41 5 38 18 -1 7
1 10 6 7 5 -3 21 2 36 10 16 7 35 14 42 14 8 0 14 5 14 11 0 5 5 7 10 4 6 -3
10 -1 10 4 0 6 7 11 15 11 14 0 78 33 103 52 8 7 12 7 12 -3 0 -8 8 -5 20 9
11 11 28 19 39 17 11 -2 22 3 25 11 3 9 10 12 16 9 5 -3 10 -2 10 4 0 5 9 8
20 6 11 -2 20 -1 20 3 0 11 88 44 100 37 5 -3 10 1 10 9 0 9 3 15 8 15 4 -1 9
-1 12 1 3 1 16 3 29 6 14 2 30 9 36 14 7 5 15 7 18 3 4 -3 7 -1 7 6 0 7 4 9
10 6 5 -3 20 1 33 10 13 8 27 12 31 8 4 -4 10 -2 14 5 5 6 17 13 27 15 18 3
140 41 175 54 8 4 21 5 28 4 6 -1 12 2 12 8 0 5 14 8 31 7 17 -1 33 3 36 10 2
7 12 13 21 13 43 2 62 6 62 11 0 4 6 7 13 8 47 4 93 15 95 23 2 5 8 7 13 4 5
-3 18 -1 30 6 12 6 19 7 15 1 -6 -10 33 -1 74 17 8 4 27 6 43 6 15 -1 27 2 27
5 0 4 14 6 30 5 17 -1 30 1 30 4 0 3 23 7 52 9 29 1 56 8 60 15 5 8 8 8 8 1 0
-7 11 -9 28 -7 62 10 308 10 320 1 8 -7 12 -7 12 2 0 9 4 9 17 -1 14 -12 15
-12 9 -1 -7 11 -4 12 12 3 11 -6 35 -11 52 -11 17 0 29 -4 26 -9 -4 -5 5 -8
19 -6 14 1 25 -2 25 -7 0 -5 5 -6 10 -3 6 3 10 1 10 -5 0 -6 5 -8 11 -5 5 4
18 1 27 -7 9 -8 29 -20 44 -27 15 -8 25 -18 22 -23 -3 -5 -2 -8 3 -7 20 3 33
-2 33 -14 0 -7 9 -19 20 -27 11 -8 20 -21 20 -30 0 -8 7 -24 15 -34 8 -10 12
-23 9 -27 -3 -5 0 -9 6 -9 6 0 9 -4 6 -9 -3 -4 -1 -22 4 -40 6 -21 5 -31 -2
-31 -7 0 -7 -5 -1 -12 11 -15 11 -58 0 -75 -4 -6 -3 -14 3 -18 6 -4 8 -10 5
-15 -5 -8 -12 -56 -17 -117 -1 -7 -6 -13 -12 -13 -6 0 -4 -5 4 -10 8 -5 10
-10 5 -10 -6 0 -11 -10 -12 -22 -1 -29 -12 -78 -20 -98 -3 -8 -7 -18 -7 -22
-1 -3 -4 -10 -8 -14 -13 -12 -9 -26 5 -19 6 4 5 1 -3 -7 -8 -7 -16 -22 -18
-33 -3 -22 -9 -49 -12 -52 -2 -2 -4 -7 -5 -13 -1 -5 -4 -13 -5 -17 -1 -5 -2
-11 -1 -15 0 -5 -4 -8 -10 -8 -5 0 -8 -3 -6 -7 3 -5 0 -19 -6 -33 -5 -14 -12
-34 -14 -45 -2 -10 -7 -22 -11 -25 -7 -5 -10 -14 -18 -54 -2 -11 -7 -22 -11
-25 -8 -6 -15 -27 -16 -48 0 -7 -4 -13 -9 -13 -4 0 -7 -3 -6 -7 1 -5 -3 -18
-10 -29 -6 -12 -8 -24 -5 -28 3 -3 1 -6 -6 -6 -7 0 -9 -4 -6 -10 3 -5 2 -10
-4 -10 -5 0 -8 -9 -6 -20 2 -11 0 -18 -6 -15 -5 4 -9 -2 -9 -13 0 -10 -3 -22
-7 -26 -5 -4 -8 -13 -8 -19 -1 -7 -6 -11 -12 -10 -6 1 -9 -6 -6 -17 3 -12 0
-20 -8 -20 -7 0 -9 -3 -6 -7 4 -3 2 -12 -5 -20 -6 -7 -8 -16 -5 -19 3 -4 -1
-13 -9 -21 -8 -8 -12 -19 -9 -24 4 -5 2 -9 -4 -9 -5 0 -12 -13 -16 -30 -4 -16
-11 -30 -16 -30 -5 0 -9 -9 -9 -19 0 -11 -6 -26 -12 -33 -7 -7 -15 -22 -16
-33 -2 -10 -11 -25 -20 -32 -14 -10 -15 -12 -2 -13 10 0 11 -3 4 -8 -6 -4 -17
-22 -25 -39 -8 -18 -18 -33 -22 -33 -5 0 -6 -4 -3 -9 3 -5 -6 -25 -19 -46 -14
-20 -21 -34 -15 -30 6 3 7 0 4 -9 -3 -9 -10 -13 -16 -10 -5 3 -8 0 -7 -7 2 -8
-8 -34 -21 -59 -13 -25 -23 -49 -22 -53 1 -5 -2 -6 -7 -3 -5 4 -13 2 -16 -4
-5 -8 -11 -7 -21 1 -9 7 -14 8 -13 3 4 -21 -2 -28 -11 -14 -7 11 -10 11 -10 2
0 -7 -5 -10 -10 -7 -6 4 -18 1 -27 -7 -14 -11 -16 -11 -8 2 7 12 6 13 -6 3 -8
-6 -30 -14 -50 -17 -20 -3 -49 -10 -64 -16 -16 -6 -35 -8 -42 -6 -8 3 -12 2
-9 -3 7 -11 -52 -23 -67 -14 -6 3 -7 1 -3 -5 4 -7 4 -12 -1 -13 -34 -3 -56 -9
-113 -28 -36 -13 -72 -25 -80 -28 -8 -4 -18 -7 -22 -8 -5 -2 -10 -4 -13 -5 -3
-1 -9 -4 -15 -5 -5 -1 -13 -4 -17 -5 -5 -1 -11 -2 -15 -1 -5 0 -8 -3 -8 -9 0
-6 -3 -9 -7 -9 -5 1 -10 0 -13 -1 -3 -1 -13 -3 -22 -5 -9 -2 -32 -11 -50 -20
-18 -9 -40 -18 -48 -20 -38 -8 -45 -10 -50 -15 -8 -8 -104 -53 -119 -56 -8 -2
-18 -9 -22 -16 -7 -10 -9 -10 -9 2 -1 12 -4 11 -15 -4 -8 -11 -18 -17 -21 -13
-4 3 -18 -2 -32 -13 -13 -11 -28 -17 -33 -14 -5 3 -9 0 -9 -5 0 -6 -7 -11 -15
-11 -8 0 -15 -4 -15 -8 0 -11 -61 -32 -73 -25 -6 3 -7 2 -4 -3 3 -6 -14 -19
-39 -30 -24 -10 -44 -22 -44 -26 0 -5 -7 -8 -15 -8 -8 0 -15 -5 -15 -11 0 -5
-4 -8 -9 -4 -5 3 -12 1 -16 -5 -4 -6 -11 -7 -17 -4 -7 4 -8 2 -4 -4 6 -11 -6
-16 -26 -13 -5 0 -8 -3 -8 -9 0 -5 -8 -7 -17 -3 -10 3 -15 2 -11 -2 8 -8 -93
-75 -113 -75 -5 0 -9 -4 -9 -10 0 -5 -7 -10 -15 -10 -8 0 -15 -4 -15 -10 0 -5
-5 -10 -10 -10 -9 0 -178 -107 -190 -121 -3 -3 -22 -15 -42 -28 -21 -12 -38
-28 -38 -33 0 -6 -3 -8 -7 -5 -4 4 -18 -4 -32 -17 -14 -14 -33 -26 -41 -28 -8
-2 -23 -13 -33 -26 -11 -13 -21 -21 -24 -18 -3 3 -16 -6 -30 -20 -14 -14 -42
-37 -64 -51 -21 -14 -39 -30 -39 -34 0 -5 -5 -9 -10 -9 -10 0 -19 -7 -85 -67
-17 -16 -35 -30 -40 -33 -6 -3 -9 -8 -8 -12 2 -5 0 -7 -5 -7 -17 3 -33 -2 -29
-8 3 -5 -1 -14 -9 -21 -8 -7 -14 -9 -14 -5 0 4 -11 -4 -24 -19 -13 -16 -28
-28 -35 -28 -6 0 -10 -3 -8 -7 1 -5 -3 -9 -8 -11 -6 -2 -14 -10 -18 -18 -5 -8
-14 -11 -20 -8 -7 4 -9 4 -5 -1 9 -9 -37 -55 -55 -55 -7 0 -6 -4 3 -10 13 -8
12 -10 -3 -10 -9 0 -27 -11 -39 -25 -11 -13 -25 -22 -30 -19 -5 3 -7 1 -6 -3
4 -14 -58 -73 -67 -65 -5 4 -6 0 -3 -9 5 -13 -29 -47 -41 -40 -2 1 -9 -8 -15
-20 -6 -12 -14 -20 -19 -18 -4 2 -16 -11 -27 -28 -11 -18 -25 -33 -30 -33 -6
0 -9 -4 -5 -9 3 -5 -4 -12 -15 -16 -11 -3 -20 -11 -20 -16 0 -16 -56 -69 -65
-61 -5 4 -5 2 -2 -5 4 -6 -3 -20 -16 -30 -13 -10 -26 -26 -30 -35 -3 -10 -14
-18 -22 -18 -9 0 -14 -4 -11 -9 7 -11 -38 -53 -48 -44 -4 4 -4 0 -1 -9 4 -10
-2 -22 -17 -32 -12 -9 -19 -16 -14 -16 4 0 -10 -18 -32 -39 -22 -22 -38 -42
-35 -45 3 -3 -2 -8 -11 -12 -9 -3 -14 -10 -11 -15 3 -4 -4 -13 -16 -19 -11 -7
-18 -14 -15 -17 2 -3 -7 -16 -21 -29 -14 -13 -22 -24 -17 -24 5 0 1 -5 -9 -11
-9 -6 -15 -14 -12 -20 4 -5 2 -9 -2 -9 -5 0 -18 -7 -29 -16 -10 -8 -13 -13 -7
-9 9 4 11 1 7 -10 -4 -9 -9 -13 -12 -10 -3 2 -10 -3 -16 -13 -42 -69 -59 -91
-69 -85 -5 3 -7 1 -3 -5 3 -6 -2 -18 -11 -28 -10 -10 -18 -25 -18 -33 -1 -9
-6 -15 -12 -14 -6 1 -14 -9 -17 -22 -4 -14 -11 -25 -17 -25 -6 0 -8 -4 -5 -9
3 -5 -1 -11 -9 -15 -8 -3 -15 -12 -15 -21 0 -8 -4 -15 -10 -15 -5 0 -10 -7
-10 -15 0 -8 -5 -15 -11 -15 -5 0 -7 -5 -4 -10 3 -6 -1 -13 -9 -16 -9 -3 -13
-10 -10 -15 3 -5 0 -9 -5 -9 -6 0 -11 -6 -11 -14 0 -7 -7 -19 -15 -26 -8 -7
-12 -16 -9 -21 3 -5 -2 -9 -10 -9 -9 0 -15 -3 -14 -7 4 -15 -13 -53 -23 -53
-6 0 -8 -4 -5 -9 3 -5 -5 -20 -18 -34 -14 -15 -19 -28 -13 -30 6 -2 -1 -14
-16 -27 -15 -13 -27 -32 -27 -42 0 -10 -4 -18 -10 -18 -5 0 -10 -3 -9 -7 2
-14 -13 -53 -20 -53 -4 0 -13 -16 -20 -35 -7 -21 -17 -33 -23 -29 -6 4 -8 3
-5 -3 9 -15 -24 -94 -36 -86 -6 3 -7 2 -4 -4 3 -5 -1 -22 -9 -37 -7 -16 -14
-35 -14 -42 0 -8 -5 -14 -11 -14 -5 0 -8 -4 -5 -8 3 -5 -4 -23 -15 -40 -10
-18 -19 -37 -19 -42 0 -5 -5 -21 -12 -37 -6 -15 -11 -31 -10 -35 1 -5 -3 -8
-9 -8 -5 0 -7 -5 -4 -10 4 -6 1 -17 -5 -25 -6 -8 -9 -19 -5 -25 3 -5 2 -10 -3
-10 -6 0 -13 -7 -16 -16 -4 -10 -2 -13 7 -8 6 4 4 -2 -5 -13 -21 -23 -24 -37
-5 -27 6 4 4 -2 -6 -13 -9 -11 -14 -23 -10 -26 3 -4 1 -7 -5 -7 -6 0 -9 -9 -7
-20 2 -11 0 -20 -5 -20 -5 0 -7 -7 -4 -15 4 -8 1 -15 -5 -15 -6 0 -8 -6 -5
-14 3 -8 1 -17 -4 -20 -6 -3 -8 -16 -4 -28 3 -12 1 -19 -4 -15 -5 3 -9 -12 -9
-34 0 -24 -5 -41 -13 -44 -11 -4 -12 -8 -2 -20 8 -9 8 -15 2 -15 -6 0 -9 -8
-8 -17 2 -10 -2 -21 -8 -25 -8 -5 -7 -8 2 -8 10 0 10 -5 2 -20 -6 -11 -8 -20
-4 -20 3 0 0 -8 -7 -17 -10 -11 -10 -14 -1 -9 13 8 17 -6 5 -18 -4 -3 -6 -27
-6 -51 1 -25 -3 -47 -8 -51 -5 -3 -6 -11 -2 -17 12 -20 12 -37 0 -37 -8 0 -9
-3 -1 -8 6 -4 11 -27 11 -52 1 -66 13 -143 27 -159 9 -12 8 -13 -3 -6 -9 5
-12 4 -8 -2 16 -25 30 -70 28 -87 -2 -11 2 -16 8 -12 6 4 11 -1 11 -11 0 -11
6 -25 13 -32 10 -11 9 -13 -3 -7 -8 4 -4 -2 10 -14 14 -12 19 -19 12 -15 -11
6 -11 3 0 -14 7 -12 16 -21 20 -21 5 0 8 -9 8 -19 0 -11 5 -23 12 -27 7 -5 8
-3 3 6 -5 9 -4 11 3 6 7 -4 12 -14 12 -22 0 -8 4 -13 9 -10 4 3 13 -6 20 -20
6 -14 16 -22 21 -19 6 4 9 1 8 -6 -2 -7 7 -18 20 -24 12 -5 22 -13 22 -17 0
-5 7 -8 15 -8 8 0 15 -4 15 -10 0 -5 7 -10 16 -10 8 0 12 -5 9 -10 -4 -6 -3
-9 2 -8 9 3 105 -33 113 -42 3 -3 12 -5 20 -5 8 0 18 -3 21 -8 3 -4 22 -9 42
-10 21 -1 37 -5 37 -8 0 -7 33 -8 200 -8 158 0 160 0 160 10 0 4 14 6 31 5 17
-1 33 3 36 10 2 7 11 10 19 7 8 -3 14 -1 14 5 0 6 8 9 18 8 9 -2 19 1 22 5 3
5 17 10 30 11 14 2 28 7 32 12 3 5 14 11 23 12 9 1 26 11 38 21 14 12 18 13
12 3 -5 -9 0 -8 13 4 12 11 22 15 22 10 0 -5 5 -1 11 9 6 9 14 15 20 12 5 -4
9 -1 9 5 0 6 4 9 9 6 5 -4 11 -2 13 3 1 5 10 11 18 13 8 2 23 11 32 21 9 10
19 18 22 18 17 -1 35 12 29 22 -3 5 -1 7 4 4 9 -6 21 2 71 43 6 6 12 7 12 3 0
-4 7 1 16 12 8 11 18 20 22 20 7 0 38 25 67 53 8 6 16 12 19 12 10 0 45 38 39
43 -2 3 6 8 19 13 13 4 29 15 36 26 7 10 18 16 23 13 5 -4 9 1 9 10 0 9 5 13
10 10 6 -3 10 1 10 9 0 9 5 16 10 16 6 0 38 28 72 63 33 34 66 62 72 62 6 0
11 5 11 11 0 6 28 38 63 72 35 34 61 62 57 62 -3 0 5 11 17 24 13 13 26 21 31
19 6 -4 11 12 8 30 0 4 4 7 10 7 6 0 17 7 25 15 9 8 13 15 9 15 -3 0 12 19 35
42 22 23 40 48 40 55 0 7 7 10 15 7 10 -4 15 0 15 11 0 10 19 35 41 56 23 22
38 39 34 39 -3 0 7 14 24 31 17 17 28 35 25 41 -4 6 -3 8 3 5 5 -3 17 7 27 24
10 16 22 26 28 23 6 -4 8 -3 5 3 -3 5 7 25 24 44 16 19 31 41 34 51 9 25 31
29 33 5 0 -12 6 -23 12 -25 5 -2 10 -12 10 -22 0 -10 5 -22 10 -25 6 -3 10
-14 10 -24 0 -10 9 -26 20 -36 11 -10 20 -22 20 -26 0 -10 22 -38 58 -75 12
-13 22 -28 22 -34 0 -6 4 -9 9 -6 5 3 20 -9 35 -26 14 -18 26 -29 26 -24 0 4
11 -4 25 -18 13 -13 34 -27 45 -31 11 -3 20 -11 20 -16 0 -6 5 -7 10 -4 6 3
10 1 10 -5 0 -6 5 -8 10 -5 6 3 10 1 10 -4 0 -6 9 -11 20 -11 11 0 20 -4 20
-9 0 -8 56 -25 73 -22 4 0 7 -3 7 -7 0 -5 12 -9 28 -10 35 -2 100 -11 130 -17
17 -4 21 -2 16 6 -4 8 -3 9 5 5 18 -11 61 -15 61 -5 0 5 7 6 15 3 8 -4 12 -11
9 -18 -3 -6 0 -4 8 4 8 9 30 15 55 15 24 0 43 3 43 7 0 11 23 5 32 -7 5 -6 8
-5 8 2 0 7 7 10 15 7 8 -4 15 -2 15 3 0 5 18 8 40 7 22 -1 37 3 34 7 -5 8 18
12 69 12 9 0 17 4 17 9 0 5 4 7 8 4 5 -3 20 1 35 9 17 9 27 10 27 3 0 -7 4 -7
13 1 8 6 22 12 33 14 10 2 28 8 39 14 11 6 26 8 33 6 6 -3 12 1 12 7 0 6 6 10
13 7 6 -2 21 3 31 12 16 13 18 13 11 1 -7 -12 -6 -13 7 -3 8 7 18 10 21 6 4
-3 7 -2 7 4 0 6 7 14 16 17 8 3 12 2 9 -4 -5 -9 53 18 65 30 3 3 11 6 19 8 14
3 167 77 211 103 14 8 28 19 33 26 4 7 14 10 21 7 7 -3 16 2 19 10 4 9 13 16
22 16 8 0 15 5 15 10 0 6 7 10 15 10 8 0 15 5 15 11 0 5 5 7 10 4 6 -3 10 -2
10 3 0 5 23 21 50 36 28 15 50 29 50 32 0 3 -5 2 -12 -2 -6 -4 -8 -3 -4 4 3 6
15 9 26 7 12 -2 18 0 15 5 -3 5 6 12 20 16 14 3 24 9 21 11 -3 3 33 30 79 60
47 30 85 60 85 66 0 6 3 7 7 4 3 -4 17 3 30 15 13 12 23 18 23 13 0 -4 12 5
26 21 15 16 23 22 19 14 -5 -8 1 -6 12 5 11 11 30 27 43 35 12 8 29 21 36 28
8 7 14 10 14 5 0 -4 7 3 16 15 8 12 19 22 24 22 11 0 45 26 69 53 8 9 21 17
29 17 7 0 10 5 6 12 -5 7 -2 9 9 5 11 -4 18 1 22 14 4 10 11 17 16 14 5 -4 9
-1 9 4 0 6 5 11 10 11 6 0 22 12 35 26 14 15 25 24 25 20 0 -4 16 10 36 31 20
21 33 31 28 23 -4 -8 9 1 29 20 59 56 76 70 88 70 5 0 8 4 5 9 -3 5 4 15 17
24 12 8 42 34 67 58 25 24 48 43 53 41 4 -1 7 4 7 11 0 13 40 43 52 39 5 -1 7
1 7 6 -3 18 2 32 12 32 14 0 68 57 61 65 -3 3 2 5 11 5 9 0 17 5 17 11 0 5 5
7 10 4 6 -4 9 -2 8 3 -2 5 16 28 40 51 23 22 43 44 45 48 1 5 5 7 9 6 5 -2 8
2 8 8 0 5 5 7 12 3 6 -4 8 -3 5 3 -4 6 20 38 54 72 33 34 58 61 55 61 -2 0 21
26 52 58 31 31 57 60 57 64 0 3 11 16 25 28 14 12 24 26 23 31 -2 5 4 9 12 9
8 0 15 4 15 9 0 5 18 28 40 52 21 23 37 46 34 51 -3 5 -1 7 4 6 5 -2 22 13 38
32 16 19 34 39 41 43 7 4 13 15 13 22 0 8 7 15 16 15 8 0 12 5 9 10 -6 9 8 14
28 11 4 0 7 5 7 12 0 9 3 8 9 -2 6 -9 11 -10 15 -2 4 6 12 11 17 11 6 0 7 -5
3 -11 -4 -8 -1 -8 12 -1 18 8 90 15 177 14 20 0 40 4 43 9 3 5 11 6 17 2 16
-10 37 -13 37 -5 0 4 38 7 85 7 50 0 85 4 85 10 0 6 4 4 9 -4 6 -10 10 -10 16
-1 6 9 10 9 16 -1 6 -9 9 -10 9 -2 0 7 13 10 35 9 20 -2 35 1 35 7 0 7 4 7 11
0 7 -7 21 -8 33 -5 11 4 54 7 93 6 47 -1 70 2 66 9 -4 6 -1 7 8 2 7 -5 86 -10
174 -11 88 -1 174 -4 190 -8 17 -3 51 -6 77 -8 27 -2 48 -5 48 -8 0 -5 23 -10
63 -13 9 -1 17 -5 17 -9 0 -4 7 -8 15 -8 8 0 15 -6 15 -14 0 -10 7 -13 20 -11
11 2 18 0 15 -6 -4 -5 2 -9 12 -9 11 0 25 -6 32 -12 11 -10 13 -10 7 0 -9 15
10 16 20 1 4 -8 9 -7 15 2 5 8 9 9 9 3 0 -13 62 -13 72 1 5 6 8 5 8 -4 0 -11
3 -11 17 0 14 12 16 12 8 0 -6 -11 -5 -12 6 -5 8 5 25 10 39 12 13 2 30 8 37
14 8 6 16 8 19 5 9 -9 55 40 52 55 -5 22 -68 48 -125 51 -13 1 -23 3 -23 7 0
3 -35 6 -78 8 -70 2 -108 6 -122 13 -15 7 -56 3 -62 -6 -5 -6 -8 -3 -8 8 0 9
6 17 14 17 8 0 16 3 18 8 2 4 29 25 62 47 92 63 99 68 135 100 18 17 37 29 42
28 5 -2 9 5 9 14 0 9 3 13 6 10 4 -3 15 5 26 18 11 14 24 22 30 19 6 -4 8 -3
5 3 -4 5 5 16 18 23 13 7 23 16 21 19 -4 6 20 32 29 31 21 -1 26 1 22 8 -3 4
1 13 9 20 8 7 14 11 14 8 0 -3 13 7 28 22 15 15 27 30 25 34 -2 4 6 9 17 13
11 3 20 11 20 17 0 5 7 8 14 5 10 -4 13 -1 10 8 -7 18 12 14 63 -12 22 -12 44
-19 48 -15 3 3 10 0 15 -8 8 -12 10 -12 10 -1 0 10 3 11 14 2 11 -10 16 -8 21
8 3 11 15 23 26 26 10 4 19 11 19 17 0 6 3 8 7 5 3 -4 17 8 30 25 12 18 23 28
23 24 0 -5 19 10 41 33 23 22 48 41 56 41 8 0 12 4 8 9 -3 6 5 15 17 22 13 6
35 25 51 41 15 16 27 26 27 22 0 -4 11 5 25 20 13 14 29 26 35 26 5 0 9 5 7
12 -1 7 3 12 10 13 7 0 19 9 27 20 9 11 16 16 16 12 0 -4 10 2 23 14 33 32 67
52 74 45 3 -3 1 -6 -5 -6 -6 0 -9 -6 -6 -14 3 -7 -2 -20 -10 -29 -8 -8 -12
-17 -9 -21 4 -3 1 -6 -5 -6 -7 0 -11 -3 -11 -7 3 -21 -2 -34 -11 -28 -6 4 -10
3 -9 -2 1 -7 0 -11 -6 -30 -2 -5 -6 -18 -10 -30 -4 -13 -11 -23 -14 -23 -4 0
-8 -6 -9 -12 -3 -35 -11 -53 -23 -50 -10 3 -11 0 -3 -8 13 -13 6 -62 -8 -54
-6 4 -2 -5 7 -19 9 -15 14 -30 11 -35 -7 -11 28 -29 72 -36 20 -4 31 -2 27 4
-4 6 7 10 24 10 17 0 31 4 31 9 0 6 9 8 20 6 11 -2 18 0 15 4 -4 8 50 26 68
22 5 -1 6 3 3 8 -7 11 49 33 59 23 3 -4 3 2 -1 12 -5 13 -4 17 4 12 6 -3 14
-1 17 5 4 5 13 8 21 5 8 -3 14 1 14 10 0 8 5 12 10 9 6 -3 13 1 16 9 3 9 10
14 14 11 4 -2 18 4 30 15 13 11 29 20 36 20 7 0 17 6 21 14 4 7 19 18 33 25
22 11 23 10 8 -2 -10 -8 -15 -17 -11 -20 3 -4 1 -7 -6 -7 -7 0 -9 -4 -6 -10 3
-5 1 -10 -4 -10 -6 0 -11 -7 -11 -15 0 -8 -5 -15 -11 -15 -5 0 -7 -4 -4 -10 3
-5 1 -10 -5 -10 -6 0 -8 -4 -5 -10 3 -5 1 -10 -5 -10 -6 0 -8 -4 -5 -10 3 -5
1 -10 -5 -10 -6 0 -8 -4 -5 -10 3 -5 1 -10 -4 -10 -6 0 -11 -9 -11 -19 0 -11
-5 -21 -10 -23 -6 -2 -12 -15 -14 -30 -1 -15 -7 -33 -12 -40 -12 -15 -8 -91 6
-128 1 -3 2 -9 1 -13 -1 -5 3 -6 8 -3 5 3 11 0 14 -8 7 -17 105 -15 148 2 15
6 30 8 33 5 3 -4 6 -1 6 6 0 7 5 9 10 6 6 -4 16 -2 23 3 7 5 33 17 59 27 26
10 45 21 43 26 -3 4 4 6 15 4 13 -2 20 1 20 11 0 9 5 12 11 8 6 -3 14 -3 18 2
13 19 54 49 46 34 -8 -13 -7 -13 11 0 10 8 25 21 32 28 8 7 17 10 20 8 4 -2
13 2 20 10 7 8 9 14 5 14 -4 0 13 10 38 23 25 12 59 36 76 54 17 17 34 29 37
25 4 -3 13 4 22 16 9 13 21 19 27 16 7 -4 9 -4 5 0 -7 8 17 34 49 53 16 9 20
8 20 -3 0 -8 -3 -14 -7 -14 -3 0 -6 -17 -6 -37 0 -21 -6 -49 -13 -62 -7 -13
-9 -21 -3 -17 5 3 12 -1 16 -9 3 -8 0 -17 -6 -21 -7 -4 -7 -9 1 -14 7 -4 13
-16 14 -28 0 -11 5 -18 9 -16 4 3 8 1 8 -5 0 -34 144 -77 156 -47 3 8 12 12
20 9 8 -3 14 0 14 7 0 6 5 8 10 5 6 -3 10 -1 10 4 0 6 6 11 13 11 7 0 23 9 35
20 12 11 25 20 31 20 5 0 12 7 15 16 4 9 9 14 12 11 4 -3 12 -1 20 6 24 22 39
33 76 58 21 14 35 29 31 32 -5 6 13 10 20 5 7 -6 45 37 40 45 -3 6 -1 7 5 3 6
-4 19 2 29 14 10 11 21 20 26 20 4 0 20 13 35 28 30 32 62 48 58 29 -5 -20
-19 -51 -30 -64 -30 -34 -36 -43 -36 -53 0 -5 -5 -10 -11 -10 -5 0 -7 -5 -4
-10 3 -6 -1 -13 -9 -16 -9 -3 -16 -12 -16 -18 0 -7 -9 -22 -20 -34 -12 -12
-19 -22 -16 -22 3 0 -11 -24 -30 -52 -19 -29 -34 -56 -34 -61 0 -5 -6 -15 -12
-22 -23 -26 -33 -41 -36 -55 -2 -8 -9 -18 -15 -22 -7 -4 -8 -8 -4 -8 9 0 -22
-61 -36 -71 -5 -3 -8 -9 -8 -12 0 -4 -9 -28 -20 -54 -11 -27 -21 -56 -22 -65
-1 -10 -4 -18 -7 -18 -12 0 -9 -85 3 -102 8 -10 24 -15 40 -14 15 2 30 -1 34
-7 4 -6 11 -4 18 6 6 9 24 18 40 21 16 3 32 11 37 18 4 7 8 9 8 3 0 -5 5 -2
11 8 6 9 14 15 20 12 5 -4 9 -1 9 4 0 6 3 10 8 10 19 -3 33 2 27 11 -3 6 1 10
9 10 9 0 16 5 16 11 0 5 5 7 10 4 6 -3 13 1 16 9 3 9 12 16 20 16 8 0 14 5 14
10 0 6 4 10 10 10 9 0 43 26 81 62 9 9 20 14 23 11 3 -4 6 1 6 11 0 9 5 14 10
11 6 -3 13 1 16 9 3 9 10 13 15 10 5 -3 9 3 9 12 0 10 3 15 6 11 3 -3 22 10
42 29 20 19 40 34 45 34 4 0 6 4 2 9 -3 5 4 12 15 16 11 3 25 15 30 26 6 10
15 19 20 19 4 0 38 29 75 65 36 36 70 65 75 65 6 0 10 6 11 13 0 6 20 28 44
47 24 19 47 43 50 53 4 9 11 15 16 12 5 -4 9 1 9 10 0 9 4 14 9 10 5 -3 13 4
16 16 4 11 9 18 12 16 6 -7 61 46 56 55 -2 4 6 9 17 13 11 4 18 11 15 16 -4 5
1 9 10 9 9 0 14 4 10 9 -3 5 -1 12 4 16 6 3 8 12 5 20 -5 13 -8 12 -21 0 -8
-9 -19 -13 -24 -10 -5 4 -9 1 -9 -5 0 -15 -46 -60 -54 -53 -3 4 -6 -2 -6 -11
0 -12 -5 -16 -14 -13 -11 4 -13 1 -9 -11 3 -9 3 -14 -1 -10 -4 3 -30 -17 -57
-45 -27 -28 -49 -48 -49 -44 0 4 -9 -2 -20 -13 -11 -11 -20 -25 -20 -30 0 -6
-6 -9 -12 -8 -7 2 -12 -3 -10 -9 2 -11 -12 -18 -21 -10 -5 4 -35 -28 -31 -34
1 -3 -10 -13 -27 -23 -16 -9 -29 -21 -29 -25 0 -5 -9 -11 -21 -14 -12 -3 -18
-10 -14 -16 3 -6 1 -11 -4 -11 -6 0 -13 0 -16 0 -2 -1 -17 -13 -33 -28 -42
-40 -71 -62 -82 -62 -6 0 -10 -3 -10 -8 0 -4 -18 -18 -40 -32 -22 -14 -40 -27
-40 -31 0 -3 -18 -14 -40 -25 -22 -10 -40 -22 -40 -26 0 -5 -7 -8 -16 -8 -9 0
-12 -5 -8 -12 4 -7 3 -10 -1 -5 -5 4 -18 -1 -29 -10 -20 -17 -20 -17 -7 0 7 9
10 17 6 17 -4 0 -2 6 4 13 6 8 8 17 4 20 -3 4 -1 7 5 7 7 0 12 5 12 11 0 6 7
17 15 26 8 8 13 18 10 23 -3 4 2 13 10 20 8 7 15 19 15 27 0 7 7 16 15 19 8 4
12 10 9 15 -3 5 0 9 5 9 6 0 11 5 11 11 0 6 14 30 30 54 17 24 30 48 30 54 0
6 5 11 10 11 6 0 10 6 10 14 0 8 3 16 8 18 8 3 68 93 62 93 -2 0 9 13 23 29
15 16 30 40 33 53 4 12 10 21 14 18 4 -3 15 11 24 30 9 19 22 35 28 35 6 0 9
3 5 6 -8 9 16 33 27 26 5 -3 6 0 2 7 -4 6 6 28 23 50 17 21 28 41 24 45 -3 3
-1 6 6 6 8 0 9 6 3 18 -5 9 -8 27 -7 40 1 12 -2 22 -7 22 -4 0 -8 6 -8 13 0 6
-15 21 -33 33 -38 25 -77 17 -116 -25 -14 -14 -29 -25 -34 -23 -5 1 -5 -3 -1
-9 4 -7 -1 -18 -11 -26 -11 -7 -15 -13 -10 -13 5 0 -2 -11 -15 -25 -12 -13
-28 -22 -34 -18 -6 3 -8 3 -4 -2 5 -5 -8 -19 -27 -32 -19 -13 -35 -29 -35 -34
0 -6 -7 -9 -15 -5 -9 3 -15 0 -15 -10 0 -8 -4 -12 -10 -9 -5 3 -10 1 -10 -4 0
-6 -7 -11 -15 -11 -13 0 -20 18 -16 43 0 4 -3 7 -9 7 -5 0 -10 6 -10 13 0 7
-9 23 -20 35 -12 12 -16 22 -11 22 6 0 -1 11 -14 25 -14 13 -25 29 -25 35 0 6
-5 8 -12 4 -8 -5 -9 -2 -4 12 4 10 4 15 0 12 -3 -4 -25 2 -48 14 -22 11 -42
20 -43 19 -2 0 -4 -1 -5 0 -20 4 -76 4 -74 0 2 -3 -13 -7 -34 -7 -20 -1 -48
-9 -62 -18 -14 -9 -28 -14 -31 -11 -4 3 -5 2 -2 -2 3 -3 -14 -19 -37 -35 -24
-15 -43 -33 -43 -40 0 -7 -6 -13 -12 -13 -7 0 -14 -4 -15 -10 -1 -5 -12 -21
-24 -34 -13 -14 -21 -28 -18 -33 3 -4 -2 -8 -11 -8 -9 0 -14 -4 -10 -9 3 -5 1
-12 -5 -16 -6 -4 -8 -11 -5 -16 4 -5 -1 -12 -9 -15 -9 -3 -14 -9 -12 -13 2 -3
-2 -15 -10 -26 -8 -10 -14 -16 -14 -12 0 4 -9 -1 -19 -10 -41 -38 -52 -44 -63
-37 -7 4 -8 3 -4 -4 4 -7 1 -12 -7 -12 -8 0 -18 -7 -21 -16 -4 -9 -13 -14 -22
-10 -8 3 -12 2 -9 -4 3 -6 2 -10 -2 -10 -5 0 -32 -15 -60 -34 -28 -19 -54 -31
-57 -28 -3 3 -6 1 -6 -5 0 -6 -8 -13 -17 -17 -18 -5 -53 -26 -63 -36 -10 -10
-65 -41 -82 -47 -10 -3 -18 -9 -18 -14 0 -5 -9 -9 -20 -9 -11 0 -20 -4 -20
-10 0 -5 -9 -10 -20 -10 -10 0 -23 -6 -27 -14 -4 -8 -17 -16 -28 -18 -11 -1
-23 -7 -26 -11 -12 -16 -57 -17 -63 -2 -3 8 -1 15 5 15 6 0 7 5 4 10 -3 6 1
13 9 16 9 3 14 10 11 14 -3 5 2 13 11 18 9 5 15 11 14 13 -4 12 14 38 23 32 5
-3 7 -1 4 4 -4 6 4 23 18 39 13 15 22 31 19 36 -3 4 2 8 10 8 8 0 18 5 22 12
5 7 3 8 -5 3 -7 -4 -5 4 4 19 10 14 21 26 26 26 5 0 9 6 9 13 0 6 10 24 23 39
35 42 52 69 49 80 -1 5 2 7 7 4 5 -4 12 3 16 14 3 11 11 20 16 20 5 0 9 5 9
10 0 6 9 20 20 32 10 12 17 25 15 29 -3 4 4 11 16 14 11 4 18 9 15 12 -5 6 43
75 57 81 4 2 4 9 0 15 -4 6 0 8 10 4 11 -4 14 -2 10 9 -3 7 1 14 8 14 7 0 10
3 6 6 -3 3 2 14 11 23 10 10 24 28 32 41 8 12 21 28 28 36 6 7 12 17 12 23 0
6 7 11 16 11 8 0 13 4 10 8 -4 7 7 24 54 79 5 7 10 17 10 23 0 6 5 8 12 4 8
-5 9 -2 5 9 -4 10 -2 16 5 14 7 -1 12 3 13 8 0 6 8 19 18 30 10 11 37 45 60
75 52 68 58 72 121 74 28 1 57 5 64 9 7 5 12 3 12 -5 0 -9 3 -9 10 2 9 13 10
13 10 0 0 -9 3 -11 8 -5 4 6 32 10 62 10 30 -1 61 3 68 8 7 6 12 6 12 0 0 -5
9 -9 20 -9 11 0 20 3 20 7 0 9 20 6 37 -4 6 -4 14 -3 17 1 3 5 73 10 156 11
118 2 150 -1 150 -11 0 -8 3 -9 8 -3 8 12 22 13 37 4 6 -4 18 -5 28 -4 9 2 17
-2 17 -8 0 -7 5 -5 10 3 6 10 10 11 10 3 0 -7 9 -13 19 -13 11 0 26 -7 35 -15
8 -8 22 -15 30 -15 9 0 16 -4 16 -10 0 -5 6 -10 13 -10 6 0 22 -11 35 -24 19
-20 28 -23 52 -16 15 4 31 6 34 2 3 -3 6 -1 6 5 0 5 11 15 25 21 14 6 25 16
25 22 0 17 33 49 43 43 6 -3 7 -1 3 5 -3 6 1 18 10 26 8 9 13 16 9 16 -3 0 0
10 7 23 7 12 13 36 14 53 1 28 -2 31 -28 29 -15 -1 -28 2 -28 7 0 6 -7 5 -16
-3 -13 -10 -17 -10 -25 2 -7 12 -9 12 -9 -1 0 -12 -2 -12 -9 -1 -5 7 -11 9
-14 5 -3 -5 -51 -9 -106 -9 -56 0 -101 -2 -101 -5 0 -3 -24 -6 -53 -7 -131 -5
-194 -10 -204 -16 -7 -4 -15 -3 -18 3 -4 7 -11 7 -18 2 -7 -5 -28 -8 -47 -7
-19 1 -43 -2 -52 -6 -10 -6 -19 -5 -24 2 -4 8 -9 7 -15 -2 -7 -12 -9 -11 -9 0
0 11 -4 10 -13 -4 -11 -14 -16 -15 -22 -5 -6 9 -4 11 5 5 9 -5 11 -4 6 4 -5 8
-12 9 -19 2 -7 -5 -39 -11 -72 -13 -33 -1 -63 -7 -67 -13 -5 -6 -8 -5 -8 3 0
9 -5 10 -18 3 -10 -6 -24 -6 -32 -1 -8 5 -19 6 -24 2 -19 -11 -75 -12 -82 0
-4 7 -3 8 4 4 7 -4 12 -1 12 9 0 9 5 13 10 10 6 -3 10 -1 10 4 0 6 20 32 45
58 25 25 45 43 45 38 0 -5 6 -1 13 10 9 11 19 15 27 10 9 -5 11 -4 6 3 -4 7 4
17 21 24 15 7 31 16 34 21 3 5 8 8 10 7 9 -3 45 15 59 30 35 38 39 68 19 139
-12 42 -96 92 -144 85 -58 -8 -105 -24 -105 -35 0 -5 -5 -9 -11 -9 -6 0 -24
-13 -41 -30 -16 -16 -34 -30 -39 -30 -6 0 -8 -4 -5 -9 3 -4 -4 -17 -15 -27
-11 -10 -29 -33 -40 -51 -11 -18 -25 -31 -30 -27 -5 3 -8 2 -7 -3 4 -13 -34
-63 -43 -57 -5 3 -8 2 -7 -3 4 -13 -48 -84 -56 -76 -4 4 -4 -1 0 -11 5 -14 4
-17 -4 -12 -7 4 -12 2 -12 -6 0 -7 -13 -26 -28 -43 -16 -16 -30 -34 -33 -40
-2 -5 -14 -10 -26 -10 -13 1 -23 -2 -23 -5 0 -3 -135 -5 -301 -5 -165 0 -302
-2 -304 -6 -2 -3 -27 -5 -54 -5 -28 1 -51 -2 -51 -6 0 -4 -6 -5 -12 -3 -7 3
-26 -6 -42 -20 -16 -14 -26 -25 -22 -25 4 0 2 -8 -3 -18 -6 -11 -6 -24 0 -34
6 -11 6 -19 -1 -23 -6 -4 -7 -13 -2 -23 5 -9 8 -24 8 -32 -2 -22 25 -49 42
-43 8 3 26 16 39 29 14 13 29 21 33 19 4 -3 11 2 14 11 3 8 10 13 15 9 5 -3
12 -1 15 4 5 8 62 23 70 18 1 -1 9 3 17 8 8 6 30 11 49 10 19 0 38 4 41 8 3 4
33 9 67 10 37 1 58 6 54 12 -3 5 2 4 11 -4 9 -7 17 -9 17 -4 0 5 12 10 28 10
171 4 234 5 236 2 6 -6 -61 -98 -67 -93 -3 3 -8 -5 -12 -18 -4 -13 -17 -31
-29 -41 -11 -10 -14 -16 -6 -12 8 4 5 -2 -7 -13 -13 -11 -23 -25 -23 -31 0 -7
-7 -14 -15 -17 -8 -4 -13 -9 -10 -14 2 -4 -7 -17 -20 -30 -13 -13 -22 -27 -19
-31 2 -4 -5 -13 -16 -19 -11 -6 -18 -15 -15 -20 3 -5 -4 -15 -15 -23 -11 -7
-17 -17 -13 -20 3 -4 1 -7 -5 -7 -7 0 -12 -5 -12 -11 0 -7 -8 -19 -17 -28 -10
-9 -27 -32 -37 -51 -11 -19 -27 -40 -35 -47 -9 -7 -13 -13 -9 -13 4 0 1 -8 -7
-17 -8 -10 -30 -39 -48 -66 -18 -26 -37 -44 -42 -40 -4 5 -5 3 -2 -3 7 -13
-36 -57 -46 -47 -4 3 -7 1 -7 -5 0 -7 -7 -12 -15 -12 -8 0 -15 -4 -15 -10 0
-5 -11 -12 -25 -16 -14 -3 -22 -10 -19 -15 3 -5 -4 -9 -15 -9 -12 0 -21 -4
-21 -10 0 -5 -5 -10 -11 -10 -6 0 -23 -9 -39 -20 -15 -11 -30 -17 -34 -13 -3
3 -6 1 -6 -6 0 -7 -13 -17 -30 -22 -16 -6 -30 -16 -30 -21 0 -7 -5 -6 -14 1
-10 9 -16 8 -26 -4 -7 -9 -19 -14 -26 -11 -7 3 -15 0 -18 -7 -2 -7 -5 -4 -5 7
-1 10 15 41 35 68 19 28 30 47 22 42 -10 -6 -10 -4 1 9 7 9 18 14 24 10 6 -3
7 -1 3 5 -4 7 -2 12 4 12 6 0 8 5 5 10 -3 6 -1 10 5 10 6 0 8 5 5 10 -3 6 -2
10 4 10 10 0 27 39 23 53 -1 5 2 6 7 3 5 -3 15 2 22 11 12 14 12 16 -1 8 -13
-8 -13 -7 0 9 8 10 15 25 16 34 2 8 8 18 14 22 6 4 12 21 12 38 1 19 5 29 12
26 6 -3 1 3 -11 14 -12 11 -19 22 -16 26 4 3 1 6 -6 6 -7 0 -9 5 -5 13 4 6 4
9 0 5 -4 -3 -23 0 -42 8 -27 11 -34 11 -34 2 0 -10 -2 -10 -9 1 -5 8 -11 9
-15 3 -4 -6 -15 -9 -26 -7 -11 2 -20 0 -20 -6 0 -5 -3 -9 -7 -8 -16 2 -53 -14
-53 -23 0 -5 -4 -7 -9 -3 -5 3 -12 1 -16 -5 -4 -6 -11 -8 -16 -5 -5 4 -9 2 -9
-3 0 -5 -19 -22 -42 -38 -24 -16 -44 -32 -46 -36 -2 -5 -8 -8 -13 -8 -6 0 -15
-5 -22 -10 -48 -41 -62 -50 -74 -50 -7 0 -12 -5 -10 -12 1 -7 -8 -17 -20 -23
-13 -5 -23 -13 -23 -17 0 -4 -6 -5 -14 -2 -9 3 -16 -2 -18 -13 -2 -12 -6 -14
-11 -6 -4 6 7 26 27 46 19 20 32 38 29 41 -3 3 2 8 11 12 9 3 16 13 16 20 0 8
7 17 15 20 8 4 13 10 10 14 -3 4 2 10 10 14 8 3 15 13 15 21 0 9 5 13 10 10 6
-4 10 -3 9 2 -4 21 2 44 10 39 7 -5 8 16 2 46 0 3 -14 13 -30 21 -37 19 -137
16 -176 -5 -32 -18 -65 -52 -65 -68 0 -6 -3 -10 -8 -10 -4 0 -18 -18 -32 -40
-14 -22 -28 -40 -33 -40 -4 0 -6 -4 -2 -9 3 -6 -2 -14 -11 -19 -9 -5 -16 -13
-16 -18 -1 -13 -49 -88 -60 -92 -4 -2 -6 -8 -2 -13 3 -5 -2 -12 -10 -15 -9 -3
-16 -15 -16 -25 0 -10 -5 -19 -11 -19 -5 0 -7 -4 -4 -10 3 -5 1 -10 -4 -10 -6
0 -10 -3 -9 -7 3 -17 -15 -42 -26 -36 -7 4 -7 1 1 -7 10 -11 0 -24 -46 -69
-33 -31 -78 -72 -102 -91 -24 -19 -54 -46 -68 -60 -13 -14 -21 -18 -16 -10 8
16 6 14 -62 -49 -18 -17 -33 -27 -33 -23 0 4 -5 0 -10 -8 -5 -8 -13 -15 -17
-15 -5 0 -15 -6 -23 -13 -49 -41 -63 -51 -71 -46 -5 3 -9 1 -9 -5 0 -5 -9 -13
-20 -16 -11 -4 -18 -11 -15 -16 6 -8 -8 -13 -27 -10 -5 0 -8 -3 -8 -9 0 -5 -7
-7 -15 -4 -12 5 -13 10 -4 20 6 8 8 14 5 14 -4 0 0 7 8 16 9 8 16 22 16 30 0
8 5 14 11 14 5 0 7 5 4 10 -3 6 -1 10 5 10 6 0 8 5 5 10 -3 6 1 13 9 16 9 3
13 10 10 15 -3 5 0 9 7 9 7 0 10 3 6 6 -3 3 3 15 14 27 10 11 19 27 19 34 0 7
5 13 11 13 5 0 8 4 5 9 -3 5 1 12 10 15 8 3 12 10 9 16 -3 6 1 13 9 16 9 3 13
10 10 15 -3 5 0 9 6 9 6 0 9 4 6 8 -3 5 4 14 14 22 10 8 17 17 14 22 -3 4 2
11 10 14 9 3 13 10 10 15 -3 5 -1 9 4 9 5 0 15 14 22 30 7 17 16 30 21 30 5 0
9 7 9 15 0 8 4 15 8 15 4 0 16 15 27 33 10 17 21 34 25 37 4 3 19 26 34 53 15
26 30 47 33 47 2 0 1 -5 -3 -12 -4 -7 -3 -8 5 -4 6 4 9 11 6 15 -2 5 6 20 19
33 17 19 23 37 22 72 0 25 -2 46 -5 46 -4 0 -12 12 -18 28 -17 37 -70 54 -104
32 -31 -19 -75 -60 -65 -60 4 0 0 -7 -9 -16 -9 -9 -23 -27 -32 -40 -8 -13 -20
-21 -26 -17 -6 3 -7 1 -3 -5 4 -6 -4 -16 -16 -23 -13 -7 -28 -19 -35 -28 -7
-9 -13 -12 -13 -8 0 4 -11 -4 -24 -18 -14 -15 -28 -27 -33 -28 -4 -1 -7 -5 -6
-9 2 -4 -3 -5 -10 -2 -15 6 -38 54 -31 65 3 5 -2 9 -10 9 -9 0 -13 6 -10 14 3
7 -2 20 -10 29 -9 9 -16 18 -16 21 0 26 -119 114 -134 99 -3 -4 -6 -2 -6 3 0
5 -21 8 -47 6 -27 -1 -58 -4 -70 -4 -13 -1 -23 -5 -23 -8 0 -3 -15 -11 -34
-18 -18 -7 -46 -23 -62 -37 -16 -14 -32 -25 -35 -25 -3 0 -12 -11 -19 -25 -7
-13 -17 -22 -22 -19 -4 3 -8 -2 -8 -10 0 -9 -4 -16 -10 -16 -5 0 -10 -7 -10
-15 0 -8 -4 -15 -9 -15 -5 0 -12 -11 -15 -25 -4 -15 -11 -23 -18 -19 -6 4 -9
1 -6 -7 3 -8 0 -19 -6 -26 -29 -32 -34 -41 -30 -46 7 -7 -15 -49 -30 -59 -7
-5 -6 -8 3 -8 10 0 11 -3 2 -13 -6 -8 -8 -17 -4 -20 3 -4 2 -7 -3 -7 -5 0 -10
-8 -11 -17 -1 -10 -3 -27 -6 -38 -2 -11 0 -25 5 -32 6 -7 5 -14 -3 -19 -8 -5
-9 -3 -4 6 5 8 4 11 -3 7 -11 -7 -5 -47 7 -47 4 0 7 -10 6 -21 -3 -37 80 -109
107 -93 6 4 8 3 5 -3 -5 -7 6 -11 28 -10 19 1 35 5 35 10 0 4 5 5 10 2 6 -3
10 -1 10 5 0 6 5 8 11 4 6 -3 15 0 20 7 4 8 12 14 17 14 5 0 17 8 27 18 9 10
24 16 32 13 8 -3 11 -2 8 3 -3 6 8 18 25 27 16 10 30 22 30 27 0 4 5 5 10 2 6
-3 10 1 10 10 0 9 5 13 10 10 6 -3 13 1 16 9 3 9 10 14 14 11 5 -3 16 5 25 17
8 13 18 22 20 20 6 -3 24 11 66 49 15 15 31 24 34 21 3 -3 5 0 5 6 0 7 8 12
17 12 9 0 13 3 10 7 -7 7 55 53 72 53 14 0 1 -41 -15 -47 -8 -3 -11 -9 -8 -14
3 -5 0 -9 -6 -9 -6 0 -9 -4 -5 -9 3 -6 0 -13 -7 -18 -15 -9 -71 -93 -63 -93 3
0 0 -6 -7 -14 -7 -8 -15 -12 -18 -11 -3 2 -7 -5 -7 -16 -1 -10 -9 -26 -17 -35
-9 -9 -13 -20 -10 -26 4 -6 3 -8 -3 -5 -8 5 -38 -41 -33 -51 1 -2 -7 -11 -18
-20 -10 -9 -17 -23 -15 -29 3 -7 1 -13 -4 -13 -5 0 -17 -20 -28 -45 -11 -25
-24 -45 -28 -45 -5 0 -6 -4 -2 -9 3 -6 -3 -14 -12 -20 -11 -6 -13 -11 -5 -11
10 0 10 -4 -2 -16 -9 -8 -16 -19 -16 -23 0 -5 -8 -26 -17 -47 -17 -40 -19 -46
-21 -75 -1 -9 -13 -19 -27 -21 -13 -3 -22 -1 -19 3 3 5 0 9 -5 9 -6 0 -11 -3
-11 -7 0 -10 -52 -9 -68 1 -7 4 -12 4 -12 -1 0 -4 -48 -8 -108 -8 -59 0 -113
-4 -119 -8 -8 -6 -13 -5 -13 2 0 9 -5 9 -20 1 -14 -8 -20 -8 -20 0 0 7 -6 8
-19 0 -14 -7 -22 -7 -26 0 -4 6 -12 7 -18 3 -20 -13 -41 -12 -49 0 -5 8 -8 9
-8 1 0 -7 -17 -12 -37 -13 -112 -2 -179 -7 -190 -14 -6 -4 -14 -3 -17 1 -6 10
-42 9 -52 -1 -4 -3 -15 -2 -25 3 -10 6 -20 6 -23 2 -2 -4 -43 -8 -90 -8 -47 1
-86 -1 -86 -4 0 -12 -60 -5 -65 8 -2 7 0 10 5 7 6 -3 10 0 10 7 0 8 9 20 20
28 11 8 20 20 20 28 0 7 5 10 12 6 8 -5 9 -2 5 10 -4 9 -3 15 1 13 8 -4 43 29
36 36 -2 2 9 16 26 30 16 15 30 32 30 38 0 7 10 22 23 34 30 30 57 64 57 73 0
4 9 13 21 20 12 7 19 16 16 19 -3 3 6 16 20 29 14 13 23 24 19 24 -3 0 2 8 12
18 32 35 52 62 44 62 -4 0 1 5 11 11 9 6 15 14 12 20 -4 5 -1 9 4 9 6 0 22 18
36 40 14 23 30 38 35 35 6 -3 7 1 4 9 -4 10 -1 16 7 16 7 0 10 3 6 6 -3 3 5
18 19 32 13 15 24 32 24 38 0 7 7 15 16 18 8 3 12 10 9 16 -3 5 -3 10 2 10 9
0 47 62 45 73 -1 4 3 7 8 7 6 0 10 7 10 16 0 9 5 12 12 8 6 -4 9 -3 6 2 -8 13
28 75 38 66 4 -4 3 0 -4 9 -6 9 -8 19 -4 23 8 9 10 126 1 126 -6 0 -8 10 -11
55 -1 14 -6 25 -10 25 -4 0 -8 7 -8 15 0 25 -67 98 -82 89 -4 -3 -8 -1 -8 4 0
5 -10 8 -22 6 -78 -11 -92 -14 -104 -25 -8 -6 -14 -9 -14 -6 0 7 -99 -46 -149
-79 -19 -13 -39 -20 -45 -17 -6 3 -8 3 -4 -2 10 -10 -43 -51 -60 -47 -8 2 -12
-1 -9 -5 3 -5 -7 -17 -24 -27 -17 -10 -27 -22 -23 -29 4 -7 4 -9 -1 -5 -8 8
-49 -18 -97 -60 -14 -13 -28 -22 -30 -20 -2 1 -18 -11 -35 -29 -17 -17 -34
-29 -37 -26 -3 3 -8 -2 -12 -11 -3 -9 -12 -16 -20 -16 -7 0 -20 -9 -28 -21 -9
-13 -19 -18 -27 -14 -8 5 -10 4 -5 -3 4 -7 4 -12 -1 -12 -4 0 -20 -10 -35 -23
-61 -51 -68 -57 -68 -52 0 3 -10 -4 -22 -15 -44 -40 -53 -47 -71 -53 -10 -4
-15 -12 -12 -17 4 -6 3 -10 -2 -9 -20 3 -34 -2 -28 -11 3 -5 -1 -10 -9 -10 -9
0 -25 -9 -37 -21 -22 -22 -49 -19 -49 5 0 8 10 22 22 30 12 9 18 16 13 16 -6
0 -1 7 9 15 11 8 16 15 11 15 -4 0 2 8 13 19 12 10 22 22 22 25 0 4 6 13 13
20 6 8 19 24 27 36 8 12 21 28 28 36 6 7 12 17 12 22 0 5 11 17 24 28 14 10
23 21 21 25 -3 3 13 25 35 48 21 22 37 41 34 41 -3 0 16 20 43 45 26 25 52 45
56 45 10 0 37 26 37 35 0 3 -5 3 -10 0 -6 -3 -13 1 -16 9 -3 9 -12 16 -20 16
-8 0 -14 4 -14 10 0 5 -3 9 -7 8 -5 -1 -34 10 -66 25 -32 15 -63 25 -68 22 -5
-4 -9 -1 -9 6 0 8 -4 8 -15 -1 -8 -7 -15 -8 -15 -3 0 5 -22 3 -49 -6 -28 -8
-47 -19 -44 -25 4 -5 -1 -7 -11 -3 -10 4 -19 1 -22 -8 -3 -8 -15 -17 -26 -21
-11 -3 -17 -8 -14 -12 4 -3 -6 -14 -21 -24 -16 -10 -24 -18 -20 -18 4 0 -11
-18 -33 -40 -22 -22 -39 -40 -36 -40 2 0 -13 -18 -35 -40 -21 -21 -39 -44 -39
-50 0 -5 -5 -10 -11 -10 -5 0 -7 -4 -4 -10 3 -5 2 -10 -4 -10 -10 0 -94 -107
-89 -113 2 -2 -9 -15 -24 -30 -14 -14 -29 -36 -33 -47 -4 -12 -9 -19 -12 -16
-3 3 -15 -12 -25 -34 -11 -22 -24 -40 -29 -40 -5 0 -9 -7 -9 -15 0 -8 -5 -15
-12 -15 -6 0 -8 -3 -5 -6 3 -4 1 -16 -5 -28 -7 -11 -12 -25 -13 -29 0 -4 -7
-12 -15 -17 -8 -5 -10 -10 -5 -10 6 0 -2 -8 -16 -18 -26 -17 -93 -71 -129
-104 -10 -9 -21 -14 -23 -11 -3 3 -12 -4 -19 -16 -7 -12 -19 -21 -26 -21 -7 0
-15 -7 -18 -15 -4 -8 -10 -12 -15 -9 -5 3 -12 -2 -15 -10 -3 -9 -12 -16 -19
-16 -7 0 -18 -7 -25 -15 -7 -9 -15 -13 -18 -10 -3 2 -11 -3 -19 -13 -10 -11
-12 -12 -8 -2 4 8 -2 4 -13 -9 -16 -20 -20 -21 -25 -8 -3 9 1 23 9 32 9 8 12
15 8 15 -4 0 0 8 9 18 8 9 16 22 17 27 1 6 6 9 11 8 5 -2 8 0 8 5 -4 22 2 42
11 37 6 -4 9 -3 8 2 -4 14 13 53 23 53 5 0 9 7 9 15 0 8 5 15 11 15 5 0 8 4 5
9 -3 4 3 16 14 26 11 10 17 21 15 25 -3 4 2 10 10 14 8 3 15 11 15 19 0 7 10
24 22 37 12 13 23 30 24 38 2 7 12 22 25 33 12 10 18 19 14 19 -4 0 -1 8 8 18
10 10 14 22 10 25 -3 4 1 7 11 7 9 0 15 4 12 8 -3 5 6 20 20 35 13 14 24 29
24 32 0 8 52 78 65 87 5 4 6 8 2 8 -4 0 3 12 17 27 14 15 23 30 21 34 -3 4 2
10 10 13 12 4 13 10 6 24 -7 13 -7 22 1 30 8 8 9 12 1 12 -6 0 -14 7 -17 16
-4 10 -2 13 7 8 14 -9 -7 19 -40 52 -13 13 -23 18 -23 12 0 -7 -5 -7 -14 1
-10 8 -16 9 -21 1 -3 -5 -13 -10 -21 -10 -17 0 -75 -56 -67 -64 3 -3 -2 -8
-11 -12 -9 -3 -16 -10 -16 -15 0 -10 -65 -79 -75 -79 -3 0 -19 -13 -35 -30
-16 -16 -36 -30 -44 -30 -8 0 -16 -6 -19 -12 -6 -19 -37 9 -37 33 0 11 -4 19
-10 19 -5 0 -7 7 -4 15 4 8 1 15 -6 15 -6 0 -8 5 -5 10 3 6 1 10 -5 10 -6 0
-8 5 -5 10 3 6 -1 10 -9 10 -9 0 -15 4 -14 8 4 11 -49 72 -56 65 -3 -4 -6 -1
-6 6 0 7 -4 9 -10 6 -5 -3 -10 -1 -10 5 0 6 -4 8 -10 5 -5 -3 -10 -2 -10 4 0
5 -9 8 -20 6 -11 -2 -20 0 -20 4 0 8 -37 7 -98 -3 -33 -5 -106 -41 -130 -63
-7 -7 -18 -13 -23 -13 -6 0 -7 -4 -4 -10 6 -9 -8 -14 -28 -11 -5 1 -5 -4 -2
-10 4 -6 -8 -25 -26 -42 -19 -17 -32 -31 -29 -31 2 -1 -4 -15 -15 -33 -10 -18
-23 -29 -28 -26 -6 4 -7 1 -2 -6 4 -8 -2 -25 -15 -43 -13 -17 -17 -27 -11 -23
14 8 -8 -35 -22 -46 -5 -3 -8 -10 -7 -15 0 -5 -2 -18 -6 -29 -20 -61 -20 -158
0 -200 16 -33 51 -67 60 -58 3 3 8 -2 12 -11 5 -13 9 -14 20 -5 8 6 14 7 14 2
0 -5 14 -9 30 -9 17 0 30 4 30 9 0 5 9 7 20 4 11 -3 18 0 17 7 -1 6 6 10 17 8
10 -2 15 1 12 6 -5 8 22 26 46 31 4 1 18 11 32 24 38 35 56 48 56 42 0 -4 7 1
16 9 8 9 20 14 25 11 5 -4 6 1 3 9 -4 11 0 16 13 16 10 0 24 9 31 21 7 12 16
19 19 16 3 -3 18 8 34 24 16 16 29 27 29 23 0 -4 11 5 25 20 14 15 30 24 35
21 6 -3 10 1 10 9 0 9 7 16 16 16 8 0 13 4 10 9 -3 5 1 12 10 15 23 9 34 7 34
-5 0 -5 -5 -7 -12 -3 -7 4 -8 3 -4 -4 7 -12 -44 -95 -73 -120 -9 -8 -10 -11
-3 -7 21 11 13 -7 -15 -33 -16 -14 -27 -27 -25 -29 7 -9 0 -23 -9 -18 -6 4 -9
0 -7 -11 2 -12 -2 -18 -10 -16 -8 1 -11 -2 -8 -7 4 -5 0 -16 -8 -24 -8 -8 -12
-17 -9 -21 4 -3 1 -6 -5 -6 -7 0 -12 -5 -12 -11 0 -6 -7 -17 -15 -26 -8 -8
-13 -19 -10 -24 4 -5 2 -9 -3 -9 -5 0 -17 -18 -27 -40 -10 -22 -22 -40 -27
-40 -4 0 -7 -3 -6 -7 4 -14 -35 -92 -44 -87 -4 3 -5 -1 -2 -9 3 -8 -2 -20 -11
-27 -12 -10 -13 -16 -3 -28 10 -13 10 -14 1 -8 -12 7 -14 3 -17 -36 -1 -7 -7
-17 -14 -21 -7 -5 -9 -13 -6 -19 4 -6 8 -24 9 -40 3 -34 19 -48 47 -43 10 2
18 -1 18 -7 0 -7 4 -7 13 1 8 6 17 8 20 4 4 -3 7 -1 7 6 0 6 6 11 13 10 26 -3
38 1 31 13 -5 8 0 9 14 6 12 -4 22 -2 22 3 0 10 49 34 63 30 5 -1 6 3 3 8 -6
9 22 26 37 23 4 -1 7 2 7 7 0 5 20 22 45 38 25 15 45 32 45 37 0 4 7 5 16 2 8
-3 12 -2 9 4 -3 5 7 17 22 27 15 10 43 33 62 50 19 18 40 33 47 33 8 0 11 6 8
15 -4 8 -1 15 6 15 6 0 17 6 24 13 7 6 27 23 44 36 17 13 29 28 25 34 -3 5 -1
7 5 3 6 -3 13 -2 17 4 8 13 35 -13 35 -35 0 -9 4 -14 9 -10 5 3 16 -4 24 -15
7 -11 25 -21 38 -22 13 -2 27 -7 31 -13 5 -6 8 -5 8 3 0 7 5 10 10 7 6 -4 17
-1 25 5 8 7 15 9 15 6 0 -10 102 46 118 64 10 10 11 11 6 1 -4 -7 7 -3 25 10
17 12 31 26 31 31 0 4 6 8 13 8 13 0 139 82 171 112 11 10 25 18 32 18 6 0 15
7 18 16 4 9 9 14 13 11 3 -4 14 3 24 15 11 11 19 17 19 13 0 -4 9 2 20 15 11
13 20 19 20 14 0 -5 5 -1 11 9 5 9 16 17 24 17 7 0 15 3 17 8 7 17 61 51 71
45 6 -3 7 -1 3 5 -4 7 -4 12 1 12 4 0 23 13 42 29 19 17 38 28 42 25 4 -2 10
5 14 16 3 11 11 20 16 20 18 0 79 47 71 55 -4 5 -2 5 4 2 6 -4 24 5 38 18 15
14 33 22 39 19 7 -4 9 -4 5 1 -4 4 16 23 45 41 28 18 57 37 63 43 24 20 90 47
107 43 18 -4 25 -52 8 -52 -5 0 -15 -16 -21 -35 -6 -19 -15 -35 -19 -35 -4 0
-18 -20 -31 -45 -13 -25 -27 -45 -32 -45 -4 0 -8 -6 -8 -12 0 -7 -14 -29 -30
-48 -17 -19 -33 -43 -36 -52 -3 -10 -10 -18 -16 -18 -6 0 -9 -3 -5 -6 9 -9
-26 -44 -37 -37 -6 4 -4 -2 4 -12 9 -11 10 -16 3 -11 -8 4 -13 1 -13 -9 0 -9
-4 -13 -10 -10 -5 3 -10 -1 -10 -10 0 -9 -11 -27 -25 -40 -13 -14 -22 -25 -19
-25 3 0 -4 -10 -16 -22 -11 -12 -20 -26 -20 -30 0 -5 -5 -6 -12 -2 -6 4 -8 3
-4 -4 3 -6 2 -13 -4 -17 -6 -4 -8 -11 -5 -16 4 -5 0 -9 -8 -9 -8 0 -20 -14
-27 -30 -7 -17 -22 -35 -32 -41 -11 -6 -17 -13 -15 -16 5 -4 -11 -26 -60 -81
-13 -14 -23 -31 -23 -39 0 -8 -4 -11 -10 -8 -5 3 -10 -1 -10 -9 0 -9 -4 -16
-10 -16 -5 0 -10 -5 -10 -10 0 -6 -5 -16 -10 -23 -41 -48 -59 -65 -64 -59 -4
3 -5 0 -2 -8 4 -9 -9 -30 -29 -51 -19 -20 -31 -39 -28 -43 6 -5 -12 -10 -29
-7 -4 0 -5 -5 -2 -13 7 -19 -8 -22 -115 -25 -52 -1 -98 -4 -103 -7 -4 -3 -8 0
-8 7 0 8 -4 8 -15 -1 -8 -7 -15 -9 -15 -5 0 4 -8 1 -17 -6 -9 -8 -14 -9 -10
-3 4 7 0 15 -9 18 -8 3 -12 2 -9 -3 3 -5 -12 -10 -32 -10 -113 -1 -193 -7
-193 -15 0 -5 -7 -3 -15 4 -12 10 -15 10 -15 0 0 -9 -4 -9 -17 1 -9 8 -14 9
-10 3 4 -7 -9 -12 -36 -13 -23 -1 -71 -5 -107 -7 -36 -3 -84 -6 -108 -8 -23
-2 -45 -6 -48 -9 -3 -3 -19 -3 -36 0 -16 2 -28 1 -25 -4 7 -11 -85 -9 -103 2
-9 6 -12 4 -8 -6 5 -12 -5 -15 -48 -14 -30 0 -54 -2 -54 -5 0 -4 -10 -7 -22
-7 -59 -4 -94 -9 -105 -16 -8 -5 -13 -3 -13 5 0 8 -3 9 -8 3 -4 -5 -16 -11
-27 -11 -49 -3 -170 -20 -170 -24 0 -1 -19 -2 -42 -3 -24 0 -43 -4 -43 -9 0
-4 -7 -5 -15 -2 -8 4 -15 2 -15 -3 0 -5 -10 -9 -22 -8 -13 1 -26 -3 -30 -9 -5
-8 -8 -7 -8 2 0 10 -5 10 -21 1 -12 -6 -32 -9 -45 -6 -13 2 -24 1 -24 -3 0 -4
-6 -7 -12 -8 -7 0 -26 -3 -43 -7 -16 -3 -43 -8 -60 -10 -16 -1 -38 -6 -47 -10
-9 -3 -22 -7 -30 -9 -7 -1 -19 -5 -25 -9 -8 -5 -13 -3 -13 5 0 8 -3 9 -8 3 -8
-12 -29 -18 -55 -17 -9 0 -16 -2 -13 -6 2 -4 -10 -8 -26 -9 -17 -1 -35 -6 -42
-11 -6 -4 -21 -7 -33 -6 -13 0 -23 -3 -23 -8 0 -6 -6 -8 -14 -5 -8 3 -17 3
-20 -1 -4 -3 -13 -7 -21 -9 -35 -7 -41 -9 -52 -16 -7 -5 -17 -6 -22 -2 -5 3
-12 1 -16 -5 -4 -6 -11 -8 -16 -5 -5 4 -9 2 -9 -4 0 -5 -9 -8 -20 -6 -11 2
-20 -1 -20 -6 0 -6 -4 -8 -9 -4 -5 3 -12 1 -16 -5 -4 -6 -11 -8 -16 -5 -5 4
-9 1 -9 -4 0 -6 -3 -10 -7 -10 -5 1 -10 1 -13 -1 -3 -1 -16 -4 -30 -6 -13 -2
-27 -9 -31 -15 -3 -6 -9 -10 -13 -10 -3 1 -7 1 -8 0 -35 -10 -36 -6 -11 34 14
23 30 45 35 48 5 3 10 10 10 15 1 22 32 73 41 67 5 -3 7 0 5 8 -3 8 3 25 13
38 10 13 16 27 13 32 -3 5 3 9 12 9 10 0 14 3 11 7 -4 3 0 14 9 24 8 9 17 26
19 36 1 10 8 17 15 15 6 -1 8 3 4 9 -3 6 -3 14 2 18 5 3 20 27 34 54 13 26 28
47 33 47 4 0 5 5 2 10 -3 6 -1 10 5 10 6 0 8 5 5 10 -3 6 1 13 9 16 9 3 14 10
11 14 -3 5 2 16 11 24 8 9 12 16 7 16 -4 0 1 7 11 15 11 8 17 18 13 21 -3 3 3
15 14 27 10 11 19 27 19 34 0 7 5 13 12 13 6 0 8 3 5 7 -4 3 1 12 11 20 9 8
11 12 5 8 -7 -3 -13 -1 -13 4 0 6 4 11 10 11 12 0 41 55 33 64 -4 3 1 6 11 6
9 0 15 4 11 9 -3 5 -1 12 5 16 6 4 8 10 5 15 -3 4 2 11 11 14 8 3 13 10 9 15
-3 5 -1 12 5 16 6 4 8 11 4 16 -3 5 0 8 7 7 7 -2 14 3 15 10 1 6 3 15 4 20 1
4 2 10 1 15 0 4 6 7 15 7 8 0 13 4 9 9 -3 5 0 13 6 16 5 4 8 13 5 20 -2 7 2
16 10 19 9 3 12 10 9 16 -3 5 1 10 10 10 9 0 13 5 10 11 -4 5 0 18 8 27 8 9
18 27 22 40 3 12 11 19 17 16 6 -4 8 -2 5 3 -7 11 18 69 34 78 5 4 9 15 9 26
0 11 7 19 16 19 8 0 12 4 9 10 -6 10 17 59 42 90 11 15 13 20 13 41 0 5 4 7
10 4 6 -3 7 1 4 9 -3 9 -1 16 6 16 6 0 9 4 6 9 -3 5 1 14 9 21 8 7 12 16 9 21
-3 5 0 9 5 9 6 0 11 3 10 8 -2 15 14 52 23 52 5 0 6 5 3 10 -3 6 -1 10 5 10 6
0 9 4 6 9 -3 5 1 14 9 21 8 7 13 16 10 20 -3 5 2 16 11 24 8 9 12 16 8 16 -3
0 -1 7 6 15 7 8 9 15 4 15 -5 0 -4 4 3 8 6 4 13 14 15 22 2 8 9 21 16 29 7 7
11 19 8 26 -3 8 2 16 10 19 9 3 12 10 9 16 -3 5 -2 10 3 10 10 0 27 48 23 64
-1 5 5 6 13 3 10 -4 13 -1 10 8 -3 7 2 25 11 39 10 14 13 26 9 26 -5 0 -4 4 2
8 12 9 49 84 46 95 -1 4 5 10 13 13 8 3 13 10 10 14 -3 5 -1 11 4 15 6 3 8 11
5 18 -5 14 49 50 60 40 4 -4 11 -1 16 7 7 11 10 12 10 2 0 -8 5 -10 13 -5 14
9 30 12 79 15 21 2 38 7 38 12 0 6 5 5 12 -2 9 -9 15 -9 26 0 8 7 16 8 20 2
10 -14 31 -15 52 -4 12 7 21 7 25 0 3 -5 11 -10 16 -10 6 0 7 5 3 12 -5 7 -3
8 7 2 8 -5 30 -9 49 -10 19 -1 76 -3 125 -4 50 -2 96 -8 104 -14 12 -9 13 -8
6 3 -6 10 -4 12 6 6 7 -5 30 -10 51 -11 20 -1 42 -5 47 -9 6 -3 11 0 11 7 0 9
2 10 8 2 6 -10 84 -23 150 -27 6 0 12 -3 12 -7 0 -7 3 -8 58 -11 17 -1 32 -7
32 -12 0 -6 3 -8 6 -4 3 3 26 0 50 -8 24 -7 44 -11 44 -8 0 3 6 1 13 -5 6 -6
29 -13 50 -17 20 -4 37 -11 37 -15 0 -4 8 -10 18 -12 11 -3 19 0 19 8 0 7 -4
11 -9 8 -4 -3 -8 2 -8 10 0 9 -7 16 -15 16 -8 0 -15 5 -15 10 0 6 -7 10 -15
10 -8 0 -15 5 -15 11 0 5 -4 7 -10 4 -5 -3 -10 -1 -10 5 0 6 -4 8 -10 5 -5 -3
-10 -2 -10 3 0 5 -21 15 -47 22 -27 7 -54 18 -61 23 -7 6 -26 10 -42 9 -17 0
-30 3 -30 7 0 4 -17 8 -37 9 -21 2 -40 8 -44 14 -4 7 -9 7 -14 -1 -4 -8 -11
-9 -18 -3 -7 5 -19 10 -27 11 -64 6 -88 9 -110 15 -14 4 -45 8 -70 9 -25 2
-50 6 -55 9 -17 9 -336 7 -330 -2 6 -9 -28 -5 -45 5 -6 3 -10 3 -10 -2 0 -4
-24 -9 -54 -10 -29 -1 -65 -4 -80 -7 -22 -4 -25 -2 -17 8 6 7 8 16 4 19 -3 4
-1 7 5 7 7 0 11 3 10 8 -3 14 14 62 21 58 4 -3 8 5 8 17 1 12 7 23 13 25 5 2
10 12 10 23 0 10 5 19 11 19 5 0 8 4 4 9 -3 5 0 15 7 23 14 15 21 33 22 60 0
9 5 16 11 15 5 -1 9 8 9 21 -1 15 3 21 12 18 7 -3 11 0 8 8 -5 13 41 122 56
131 5 3 7 12 4 20 -3 8 1 21 10 30 8 9 13 22 10 30 -4 8 -2 15 4 15 5 0 12 18
16 40 3 22 11 40 17 40 5 0 8 4 4 9 -3 5 -1 12 5 16 6 4 8 11 5 16 -4 5 -1 9
5 9 6 0 9 4 6 9 -4 5 2 29 12 53 11 23 18 53 17 65 -1 13 3 19 8 16 6 -4 8 0
4 9 -3 9 -1 20 5 26 8 8 15 35 20 80 1 6 4 12 7 12 6 0 8 12 13 83 2 20 7 37
12 37 5 0 6 3 3 6 -3 4 -2 16 4 27 8 15 8 18 -1 12 -9 -5 -9 -3 -2 11 5 11 8
27 7 37 -2 9 2 17 8 17 7 0 5 5 -3 10 -8 5 -10 10 -5 10 6 0 10 59 10 155 1
85 -3 155 -7 155 -4 0 -8 5 -8 11 0 5 5 7 11 3 8 -4 8 -1 1 12 -5 11 -8 29 -7
42 1 12 -1 22 -5 22 -3 0 -7 15 -8 33 -2 17 -7 34 -13 35 -6 3 -6 9 2 18 9 11
9 14 -1 14 -7 0 -10 7 -6 15 3 8 1 15 -4 15 -9 0 -26 39 -22 53 1 4 -2 7 -8 7
-5 0 -10 6 -10 14 0 8 -13 25 -29 39 -17 14 -27 28 -23 31 3 4 -4 9 -16 13
-12 3 -19 9 -16 14 3 5 -4 9 -16 9 -12 0 -18 5 -15 10 3 6 -3 10 -14 10 -12 0
-21 3 -21 8 0 9 -49 32 -68 32 -7 0 -11 4 -8 8 2 4 -7 9 -21 10 -14 1 -32 7
-39 13 -8 6 -14 8 -14 4 0 -4 -8 -1 -17 6 -10 9 -14 9 -10 2 6 -9 -3 -8 -27 2
-43 18 -49 19 -40 3 6 -10 4 -10 -7 0 -7 6 -25 12 -39 12 -14 0 -32 6 -39 13
-11 10 -13 10 -7 0 8 -14 -10 -18 -18 -5 -4 7 -51 9 -51 2 0 -1 -8 -3 -17 -5
-10 -2 -18 1 -18 7 0 6 -6 5 -15 -2 -12 -10 -15 -10 -15 0 0 9 -3 10 -13 1
-10 -8 -17 -7 -25 1 -9 9 -12 9 -12 -1 0 -11 -3 -11 -15 -1 -11 9 -15 9 -15 1
0 -7 -5 -9 -12 -4 -19 11 -39 13 -32 1 8 -12 -29 -6 -38 7 -5 6 -8 6 -8 -1z
m-95 -2241 c-9 -8 -13 -19 -10 -24 4 -5 0 -9 -8 -9 -8 0 -15 -6 -14 -12 1 -31
-4 -49 -11 -44 -4 2 -9 -5 -9 -17 -1 -12 -7 -23 -13 -25 -5 -2 -10 -10 -10
-17 0 -8 -7 -20 -15 -29 -9 -8 -16 -19 -15 -23 0 -18 -12 -43 -21 -43 -6 0 -7
-4 -4 -10 3 -5 1 -10 -5 -10 -6 0 -9 -4 -5 -9 3 -5 -1 -16 -9 -24 -8 -8 -12
-17 -9 -21 4 -3 1 -6 -5 -6 -7 0 -11 -3 -10 -7 3 -11 -23 -56 -41 -71 -13 -11
-13 -12 -1 -7 8 4 6 -1 -4 -9 -15 -12 -16 -16 -5 -16 8 0 10 -3 4 -8 -6 -4
-19 -24 -30 -44 -10 -20 -22 -35 -27 -32 -4 3 -5 -1 -2 -9 3 -8 -1 -21 -8 -28
-7 -8 -14 -21 -16 -29 -2 -8 -8 -18 -14 -21 -5 -3 -10 -10 -10 -15 -2 -21 -11
-44 -17 -44 -4 0 -13 -16 -21 -35 -7 -19 -17 -32 -21 -29 -4 2 -6 -5 -4 -16 2
-11 0 -20 -6 -20 -5 0 -17 -18 -26 -40 -10 -22 -21 -40 -26 -40 -4 0 -5 -5 -2
-10 3 -6 -1 -13 -9 -16 -9 -3 -14 -10 -11 -14 3 -4 -2 -13 -10 -20 -8 -7 -12
-16 -9 -21 3 -5 0 -9 -5 -9 -6 0 -10 -3 -10 -7 3 -20 -2 -34 -11 -28 -9 6 -15
-17 -10 -40 1 -5 -2 -7 -6 -3 -7 8 -44 -53 -38 -63 2 -4 -3 -10 -12 -13 -8 -3
-12 -10 -9 -16 3 -5 2 -10 -3 -10 -6 0 -15 -13 -21 -30 -5 -16 -15 -30 -21
-30 -6 0 -9 -4 -5 -9 3 -5 1 -12 -5 -16 -6 -4 -8 -10 -5 -15 3 -4 -2 -10 -10
-14 -8 -3 -15 -12 -15 -21 0 -8 -5 -15 -11 -15 -5 0 -7 -4 -4 -10 3 -5 1 -10
-5 -10 -6 0 -9 -4 -6 -9 3 -4 -3 -16 -14 -26 -11 -10 -17 -22 -14 -26 3 -5 0
-9 -5 -9 -6 0 -11 -7 -11 -15 0 -8 -5 -15 -11 -15 -5 0 -7 -4 -4 -10 3 -5 1
-10 -4 -10 -6 0 -11 -5 -11 -10 0 -6 -12 -29 -27 -53 -15 -23 -27 -46 -28 -50
0 -4 -7 -12 -15 -17 -8 -5 -11 -12 -7 -16 3 -4 -3 -15 -14 -25 -11 -9 -21 -21
-22 -26 -1 -4 -5 -7 -9 -6 -4 2 -5 -4 -2 -12 3 -8 -3 -24 -15 -36 -11 -12 -18
-25 -16 -29 3 -5 -2 -11 -11 -14 -8 -3 -12 -10 -9 -16 3 -5 3 -10 -2 -10 -4 0
-21 -25 -38 -55 -16 -30 -33 -55 -38 -55 -4 0 -5 -4 -2 -10 3 -5 1 -10 -4 -10
-6 0 -11 -7 -11 -15 0 -8 -4 -15 -9 -15 -5 0 -11 -9 -14 -21 -4 -13 -10 -18
-18 -13 -8 5 -10 3 -5 -5 5 -7 1 -20 -7 -29 -9 -9 -17 -21 -18 -27 -5 -20 -34
-65 -42 -65 -5 0 -6 -4 -3 -9 3 -5 -5 -20 -19 -35 -13 -15 -23 -29 -22 -31 3
-8 -37 -65 -45 -65 -5 0 -8 -6 -8 -13 0 -8 -9 -24 -20 -37 -11 -12 -17 -26
-15 -30 3 -4 -2 -11 -11 -14 -8 -3 -12 -10 -9 -16 3 -5 -1 -10 -9 -10 -9 0
-13 -6 -10 -14 3 -7 -2 -16 -11 -20 -9 -3 -13 -10 -10 -16 3 -5 1 -10 -4 -10
-6 0 -11 -5 -11 -11 0 -6 -6 -17 -12 -24 -29 -33 -38 -45 -33 -45 5 0 -4 -12
-32 -45 -7 -7 -13 -16 -13 -20 0 -10 -63 -99 -72 -103 -4 -2 -6 -8 -3 -12 3
-5 -5 -16 -17 -24 -13 -9 -17 -16 -9 -16 9 0 4 -9 -11 -23 -14 -13 -29 -34
-33 -45 -3 -12 -11 -22 -16 -22 -6 0 -15 -13 -20 -30 -6 -16 -15 -30 -20 -30
-5 0 -14 -12 -19 -26 -6 -14 -14 -23 -19 -20 -5 3 -8 -2 -7 -12 0 -9 -5 -16
-12 -14 -8 1 -11 -2 -8 -7 3 -4 -10 -29 -29 -54 -19 -24 -31 -47 -28 -51 4 -3
-1 -6 -10 -6 -9 0 -16 -3 -16 -7 3 -21 -2 -33 -13 -30 -8 1 -12 -6 -10 -17 2
-10 -1 -15 -7 -12 -5 4 -12 -3 -16 -14 -3 -11 -11 -20 -16 -20 -6 0 -7 -4 -4
-10 3 -5 1 -10 -4 -10 -6 0 -11 -7 -11 -16 0 -8 -4 -12 -10 -9 -5 3 -10 0 -10
-8 0 -7 -9 -23 -19 -34 -11 -12 -17 -24 -14 -27 4 -3 -1 -6 -11 -6 -9 0 -14
-4 -11 -10 3 -5 1 -10 -4 -10 -6 0 -11 -5 -11 -11 0 -15 -26 -39 -34 -31 -4 3
-4 -1 0 -11 4 -12 1 -17 -10 -17 -9 0 -15 -3 -14 -7 4 -16 -23 -53 -34 -47 -6
4 -8 3 -5 -3 8 -13 -27 -55 -38 -45 -5 4 -5 1 -1 -6 5 -8 -2 -22 -19 -38 -14
-13 -23 -24 -19 -24 4 0 -3 -8 -14 -19 -12 -10 -22 -22 -22 -26 0 -4 -11 -18
-26 -31 -14 -13 -22 -24 -18 -24 4 0 -3 -9 -16 -20 -13 -11 -19 -20 -14 -20 5
-1 -2 -7 -16 -15 -14 -8 -21 -14 -16 -15 5 0 -3 -11 -18 -25 -14 -13 -26 -29
-26 -35 0 -5 -7 -10 -16 -10 -8 0 -12 -4 -9 -10 3 -5 1 -10 -5 -10 -6 0 -8 -4
-5 -10 3 -5 -1 -10 -9 -10 -9 0 -16 -5 -16 -11 0 -6 -22 -32 -50 -59 -27 -27
-50 -53 -50 -59 0 -6 -7 -11 -17 -11 -9 0 -14 -3 -11 -6 10 -9 -193 -204 -212
-204 -6 0 -10 -7 -10 -16 0 -8 -4 -12 -10 -9 -5 3 -10 -1 -10 -10 0 -9 -4 -13
-10 -10 -5 3 -10 1 -10 -4 0 -6 -6 -11 -14 -11 -7 0 -21 -11 -32 -24 -10 -14
-21 -23 -26 -20 -4 3 -8 0 -8 -6 0 -6 -4 -9 -9 -6 -5 3 -12 -1 -15 -10 -3 -8
-9 -13 -13 -11 -11 7 -33 -19 -25 -28 4 -4 3 -5 -3 -4 -16 5 -75 -19 -75 -30
0 -6 -7 -8 -15 -5 -8 4 -15 2 -15 -4 0 -5 -12 -13 -27 -17 -48 -14 -53 -15
-65 -18 -7 -1 -17 -5 -23 -8 -5 -4 -20 -5 -32 -4 -13 1 -23 -1 -23 -5 0 -3
-18 -6 -40 -5 -21 1 -37 -2 -34 -7 3 -4 0 -8 -5 -8 -6 0 -11 5 -11 11 0 5 -5
7 -11 3 -21 -13 -71 -15 -63 -2 5 7 3 8 -7 3 -18 -12 -59 -15 -59 -5 0 4 -10
8 -22 8 -41 1 -73 7 -79 15 -3 4 -16 9 -27 10 -12 1 -22 5 -22 9 0 4 -6 8 -14
8 -7 0 -19 7 -26 15 -7 8 -15 13 -19 10 -4 -2 -15 7 -25 20 -10 14 -24 22 -30
18 -6 -3 -8 -3 -4 1 4 5 -4 19 -17 32 -13 12 -31 41 -41 64 -10 22 -21 40 -24
40 -3 0 -7 12 -8 28 -1 15 -7 29 -12 30 -6 2 -10 14 -10 27 0 13 -4 26 -10 30
-6 4 -6 15 0 31 6 14 6 23 1 20 -5 -3 -11 8 -13 24 -3 17 -1 30 3 30 5 0 5 10
1 23 -10 29 -9 78 2 96 6 9 5 12 -1 8 -7 -4 -10 3 -9 18 0 14 5 25 9 25 4 0 3
9 -3 20 -6 11 -7 20 -2 20 4 0 8 12 9 28 0 15 4 52 8 82 4 30 9 62 9 70 1 9 5
20 8 25 9 16 22 79 19 97 -1 9 3 19 9 23 5 3 10 17 10 31 0 15 4 23 10 19 7
-4 9 3 6 19 -3 18 -1 24 6 20 7 -5 9 -2 5 8 -3 9 2 26 10 39 9 12 11 19 4 15
-15 -10 8 34 24 46 6 5 4 8 -5 8 -13 0 -13 1 0 10 8 5 11 10 6 10 -5 0 -3 7 4
15 7 8 9 15 4 15 -5 0 -3 4 3 8 7 4 14 17 16 27 2 11 11 34 20 51 9 17 13 34
10 38 -4 3 -1 6 5 6 7 0 11 3 10 8 -4 14 13 52 24 52 5 0 8 7 4 15 -3 8 -1 15
4 15 6 0 10 3 9 8 -2 14 14 52 22 52 5 0 5 7 2 17 -4 11 -3 14 5 9 8 -5 12 0
12 13 0 12 5 21 11 21 5 0 8 4 5 9 -3 5 1 11 9 15 8 3 12 12 9 20 -5 14 0 23
33 60 7 8 9 17 5 21 -4 3 0 12 9 18 9 7 17 17 18 22 4 25 13 45 21 45 4 0 11
11 14 25 4 16 11 23 18 19 8 -5 9 -2 5 9 -3 10 -2 17 4 17 6 0 7 5 4 10 -3 6
-1 10 4 10 6 0 11 7 11 15 0 8 5 15 10 15 6 0 10 5 10 10 0 6 8 23 18 38 41
60 72 112 70 118 -2 3 5 10 15 15 9 6 15 14 12 20 -4 5 1 9 10 9 9 0 14 4 10
9 -3 5 -1 12 5 16 6 4 7 11 4 17 -5 7 -2 8 5 4 8 -5 14 0 18 13 3 11 10 18 16
14 6 -4 8 0 5 9 -4 8 2 21 12 28 11 8 17 17 14 22 -3 4 0 8 6 8 6 0 8 5 4 12
-5 8 -2 9 10 5 14 -5 17 -3 12 8 -3 8 -2 15 2 15 4 0 18 17 32 37 25 37 35 50
75 95 12 13 22 26 23 31 1 4 9 15 17 25 16 17 34 39 95 113 19 23 44 51 55 63
11 12 19 24 17 29 -1 4 5 7 15 7 9 0 14 3 10 6 -3 3 12 23 34 45 21 21 37 39
34 39 -2 0 11 16 31 35 19 19 39 35 45 35 6 0 7 5 4 10 -3 6 1 10 9 10 9 0 15
3 15 8 -3 17 1 32 9 30 4 -2 35 25 70 60 34 34 62 59 63 55 0 -5 4 0 8 10 4
10 11 18 15 17 5 -1 17 11 27 27 10 15 19 24 19 20 0 -5 15 8 34 27 18 20 38
36 44 36 6 0 13 8 16 18 4 11 18 25 31 32 14 7 25 17 25 22 0 5 5 6 10 3 6 -3
10 1 10 9 0 9 5 16 11 16 7 0 22 11 35 25 13 14 27 26 31 28 5 1 7 6 5 10 -1
5 1 6 6 3 5 -3 15 3 24 12 8 9 25 24 38 32 13 8 30 23 39 33 8 9 20 17 25 17
5 0 19 11 31 24 13 14 25 22 28 20 3 -3 11 4 17 16 6 12 14 19 17 17 2 -3 12
1 21 8 10 8 35 28 57 44 22 17 46 35 53 41 6 6 12 7 12 3 0 -4 4 -3 8 4 4 6
14 13 22 15 8 2 21 11 28 21 7 9 18 15 23 12 5 -4 9 2 9 12 0 15 2 16 10 3 8
-13 10 -12 10 3 0 10 5 15 10 12 6 -3 10 -1 10 4 0 6 5 11 10 11 6 0 16 5 23
10 30 26 116 77 121 72 3 -3 6 0 6 7 0 7 4 10 8 7 5 -3 16 4 25 15 9 10 24 19
32 19 8 0 15 5 15 11 0 5 5 7 10 4 6 -3 10 -1 10 5 0 6 5 8 10 5 6 -3 10 -2
10 3 0 4 16 14 35 22 19 8 35 17 35 20 0 4 24 17 53 30 28 13 68 34 88 46 20
13 40 20 43 16 4 -3 10 -2 14 4 8 14 74 49 85 46 4 -1 7 3 7 8 0 6 3 9 8 7 13
-4 102 37 102 47 0 5 3 7 6 4 3 -4 24 2 47 12 71 30 82 33 95 31 6 -1 12 2 12
8 0 5 14 12 30 16 17 4 30 11 30 16 0 6 4 8 8 5 5 -3 20 1 35 9 14 7 28 11 31
8 3 -3 12 0 21 7 8 7 15 9 15 4 0 -4 5 -3 12 4 7 7 22 12 35 12 13 0 23 5 23
10 0 6 3 9 8 9 4 -1 9 0 12 1 3 1 14 4 25 6 23 5 34 9 55 17 8 3 29 9 45 13
40 10 45 11 48 13 1 2 13 4 26 7 14 2 30 9 37 15 6 5 16 9 20 8 7 -2 36 3 97
17 4 1 9 3 12 4 10 5 25 8 51 9 14 0 23 5 20 10 -4 5 3 7 14 4 17 -5 18 -7 5
-20z m947 -735 c19 3 71 -42 61 -52 -4 -3 2 -6 13 -6 16 0 15 -4 -10 -25 -16
-13 -33 -22 -39 -18 -6 4 -8 0 -5 -9 4 -9 -5 -21 -27 -33 -19 -9 -36 -24 -39
-31 -3 -8 -12 -11 -21 -8 -9 4 -15 1 -15 -8 0 -8 -18 -24 -40 -37 -22 -12 -40
-26 -40 -31 0 -9 -40 -25 -53 -22 -5 1 -6 -2 -2 -7 6 -11 -29 -34 -39 -24 -3
3 -6 1 -6 -5 0 -15 -27 -15 -36 0 -4 6 -3 8 4 4 6 -3 13 -2 17 4 3 5 2 10 -4
10 -12 0 -9 14 13 67 10 25 23 40 29 36 6 -3 7 -1 3 5 -9 15 18 55 29 44 5 -4
5 -2 2 4 -3 6 4 22 16 35 12 13 21 27 20 31 -2 5 5 8 14 8 9 0 13 3 10 7 -9 9
70 66 82 59 5 -4 12 -2 16 4 4 6 12 7 18 3 7 -4 20 -6 29 -5z m2853 -24 c15
-13 24 -24 20 -24 -5 0 -4 -5 2 -11 8 -8 5 -18 -14 -35 -14 -13 -32 -24 -40
-24 -8 0 -12 -4 -8 -9 3 -5 -4 -12 -15 -16 -11 -3 -20 -11 -20 -16 0 -5 -6 -9
-14 -9 -8 0 -22 -10 -30 -22 -9 -12 -16 -19 -16 -15 0 8 -35 -19 -58 -45 -9
-9 -19 -15 -24 -12 -4 3 -11 -2 -14 -10 -3 -9 -12 -16 -20 -16 -8 0 -14 -5
-14 -11 0 -5 -5 -7 -10 -4 -6 3 -12 0 -15 -7 -3 -8 -15 -14 -26 -15 -19 -2
-20 2 -15 30 4 18 7 38 8 45 1 6 6 12 11 12 5 0 6 7 3 16 -3 8 -2 12 4 9 6 -3
10 1 10 9 0 9 5 16 11 16 5 0 8 4 4 9 -3 5 2 17 11 25 8 9 13 16 9 16 -3 0 6
11 21 25 15 14 24 25 20 25 -3 0 3 9 14 20 11 11 25 20 31 20 5 0 8 4 5 9 -7
10 22 25 42 22 6 -1 12 3 12 10 0 6 8 9 20 6 11 -3 20 -2 20 3 0 14 47 -2 75
-26z m2845 24 c0 -4 5 -8 11 -8 5 0 7 4 4 10 -3 6 1 7 9 4 9 -3 13 -10 10 -15
-3 -5 2 -9 10 -9 8 0 22 -10 30 -22 18 -25 21 -42 7 -33 -5 3 -12 -4 -16 -14
-6 -19 -40 -38 -59 -32 -5 1 -3 -6 5 -15 8 -10 9 -15 3 -11 -10 6 -24 -2 -74
-45 -8 -7 -18 -12 -22 -10 -5 1 -8 -2 -8 -8 0 -5 -6 -10 -13 -10 -7 0 -18 -9
-25 -20 -7 -11 -17 -20 -23 -20 -5 0 -19 -9 -31 -20 -11 -10 -36 -26 -56 -36
-28 -13 -36 -14 -43 -3 -4 8 -3 16 2 20 6 3 10 8 9 10 -5 11 15 67 31 91 11
14 19 29 19 32 0 4 5 12 10 19 6 7 24 28 40 47 16 19 30 38 30 41 0 4 19 19
41 34 23 15 38 22 35 16 -4 -7 -1 -9 8 -5 9 3 16 9 16 13 0 4 9 7 20 7 11 0
20 -4 20 -8z m147 -113 c0 -8 -4 -12 -9 -9 -5 3 -6 10 -3 15 9 13 12 11 12 -6z
m-4949 -204 c3 -8 -1 -12 -9 -9 -7 2 -15 10 -17 17 -3 8 1 12 9 9 7 -2 15 -10
17 -17z m6 -653 c-5 -8 0 -9 14 -6 29 8 36 -4 14 -23 -9 -9 -28 -30 -42 -49
-30 -40 -70 -90 -87 -108 -7 -7 -13 -18 -13 -23 0 -6 -4 -7 -10 -4 -5 3 -10
-1 -10 -9 0 -9 -4 -16 -8 -16 -5 0 -15 -11 -22 -25 -7 -13 -21 -27 -31 -30
-10 -4 -18 -12 -16 -18 1 -7 -4 -11 -11 -9 -8 1 -11 -2 -7 -7 8 -14 -75 -102
-89 -94 -6 3 -8 3 -5 -1 8 -9 -44 -68 -135 -155 -38 -36 -101 -99 -141 -138
-39 -40 -76 -73 -82 -73 -5 0 -16 -11 -23 -25 -7 -14 -15 -23 -18 -20 -2 2
-22 -15 -43 -38 -22 -22 -39 -37 -39 -32 -1 6 -6 0 -13 -12 -7 -12 -16 -23
-22 -25 -5 -2 -9 -7 -7 -12 2 -5 -4 -6 -12 -3 -9 4 -15 2 -13 -2 3 -11 -50
-61 -64 -61 -6 0 -7 -5 -3 -12 5 -8 2 -9 -12 -4 -10 4 -16 4 -12 1 6 -6 -34
-47 -98 -100 -20 -16 -47 -40 -60 -53 -13 -13 -24 -20 -24 -17 0 3 -13 -8 -30
-25 -16 -16 -34 -30 -39 -30 -5 0 -13 -9 -16 -21 -4 -11 -9 -18 -12 -15 -5 5
-11 1 -57 -39 -16 -14 -33 -25 -38 -25 -5 0 -7 -4 -4 -9 3 -4 -6 -13 -19 -19
-14 -7 -25 -16 -25 -22 0 -5 -3 -9 -7 -8 -5 1 -21 -10 -37 -25 -16 -14 -32
-24 -37 -21 -5 3 -9 -2 -9 -10 0 -8 -9 -18 -20 -21 -11 -4 -17 -11 -14 -17 4
-6 3 -8 -3 -5 -5 4 -19 -3 -31 -13 -12 -11 -23 -20 -26 -20 -3 0 -17 -11 -32
-25 -14 -13 -32 -22 -38 -18 -6 3 -8 3 -4 -1 8 -10 -14 -36 -24 -29 -5 2 -8
-1 -8 -6 0 -6 -6 -11 -14 -11 -8 0 -17 -7 -20 -16 -3 -8 -10 -12 -16 -9 -5 3
-10 1 -10 -5 0 -6 -8 -14 -17 -17 -10 -4 -23 -12 -29 -17 -33 -30 -56 -47 -61
-43 -2 3 -13 -2 -23 -11 -37 -34 -50 -43 -50 -35 0 4 -5 1 -10 -7 -5 -8 -13
-15 -17 -15 -4 -1 -27 -13 -50 -28 -23 -15 -48 -28 -54 -29 -7 -2 -21 -11 -31
-21 -10 -10 -23 -15 -28 -12 -6 4 -10 1 -10 -5 0 -7 -5 -10 -12 -8 -6 2 -20
-4 -30 -14 -10 -10 -27 -18 -37 -18 -11 0 -23 -5 -26 -10 -4 -6 -16 -8 -27 -4
-14 4 -18 2 -14 -5 4 -6 2 -12 -3 -12 -38 -5 -51 -7 -53 -9 -4 -2 -39 -9 -68
-13 -14 -2 -31 -6 -37 -10 -7 -4 -15 -3 -18 3 -5 8 -11 7 -21 -1 -8 -6 -14 -9
-14 -5 0 3 -11 1 -25 -4 -18 -7 -25 -6 -25 3 0 8 -3 8 -8 2 -9 -13 -42 -13
-61 -1 -10 6 -12 5 -7 -2 5 -8 -5 -11 -29 -10 -19 1 -35 6 -35 12 0 7 -3 7 -8
1 -8 -12 -42 -16 -42 -5 0 4 -12 5 -26 2 -15 -3 -24 -1 -21 4 3 5 -7 10 -21
11 -55 3 -82 8 -82 16 0 5 -4 5 -10 2 -5 -3 -10 -1 -10 5 0 6 -4 9 -9 5 -5 -3
-15 0 -23 7 -7 7 -20 14 -28 16 -8 2 -28 15 -45 30 -19 17 -24 20 -15 7 8 -11
-6 1 -31 26 -58 61 -81 89 -71 89 4 0 3 4 -3 8 -15 10 -35 49 -35 67 0 8 -4
15 -9 15 -5 0 -12 7 -15 16 -3 8 -2 12 4 9 6 -3 10 -1 10 4 0 6 -4 11 -9 11
-5 0 -12 7 -15 16 -4 10 -2 13 6 8 7 -5 8 -3 2 7 -5 8 -10 25 -12 39 -2 14 -7
27 -13 28 -5 2 -6 9 -2 15 9 15 11 47 3 47 -9 0 -6 43 4 59 7 11 5 13 -7 8
-14 -5 -14 -3 1 24 9 16 20 29 25 29 4 0 7 7 7 15 0 7 6 18 13 22 7 4 28 32
46 61 18 28 37 52 43 52 5 0 6 5 3 10 -3 6 -1 10 4 10 6 0 11 6 11 14 0 8 4
16 8 18 10 4 66 87 75 111 4 10 12 15 17 12 6 -4 10 -3 9 2 -1 4 0 11 1 16 1
4 3 13 4 20 1 6 7 11 13 10 6 -1 14 9 17 22 4 14 11 25 16 25 6 0 10 6 10 14
0 8 8 21 18 28 9 7 18 20 20 28 2 8 11 23 19 33 9 9 12 17 7 17 -5 0 -1 5 9
11 9 5 17 14 17 20 0 11 41 72 53 77 4 2 5 8 1 13 -3 5 0 9 6 9 6 0 8 5 5 10
-3 6 -1 10 5 10 6 0 8 5 5 10 -5 9 7 14 26 12 4 -1 5 8 2 18 -3 11 0 20 6 20
6 0 11 7 11 15 0 8 5 15 10 15 6 0 10 8 10 18 0 16 64 79 78 76 4 -1 19 7 35
18 15 11 27 16 27 12 0 -4 9 1 20 11 11 10 20 15 20 11 0 -3 11 1 25 10 14 9
25 13 25 9 0 -3 7 1 16 9 8 9 19 14 24 11 5 -3 11 -1 15 5 4 6 11 8 16 5 5 -4
9 -1 9 5 0 6 5 8 10 5 6 -3 10 -1 10 6 0 7 3 10 6 6 4 -3 20 1 36 9 16 8 34
12 40 8 7 -4 8 -3 4 4 -5 8 0 12 13 12 12 0 21 4 21 9 0 5 11 8 25 6 14 -1 25
1 25 5 0 6 29 15 68 21 4 0 13 5 20 11 6 6 12 7 12 4 0 -4 8 -2 18 3 11 6 32
12 48 15 16 3 30 10 32 14 1 5 16 8 32 6 17 -2 30 1 30 7 0 6 7 9 15 5 8 -3
15 -2 15 2 0 4 8 9 18 10 26 2 67 10 67 12 0 2 11 4 25 5 14 1 32 5 40 8 13 5
47 14 85 22 38 9 84 17 108 18 15 1 27 6 27 10 0 5 4 6 9 2 5 -3 12 -1 16 5 4
6 12 7 18 3 18 -11 30 -11 47 2 8 7 27 11 43 10 15 -1 27 3 27 8 0 6 2 8 6 5
3 -3 21 -2 40 2 19 4 36 4 39 -1 3 -4 12 -6 20 -3 8 4 13 9 11 13 -3 4 15 6
40 6 24 -1 44 2 44 6 0 3 11 4 25 1 14 -2 25 0 25 4 0 5 24 10 53 11 72 3 100
7 115 16 6 5 12 4 12 -2 0 -6 7 -8 15 -5 8 4 12 11 8 18 -5 8 -3 8 8 0 8 -6
23 -10 34 -8 11 3 38 6 60 7 22 2 47 7 54 12 10 6 12 4 6 -6 -7 -11 -6 -12 6
-3 8 6 26 11 42 10 15 -1 27 1 27 4 0 5 24 6 177 13 29 1 53 4 53 7 0 3 20 5
45 5 25 -1 50 2 57 6 7 4 20 3 30 -2 10 -6 24 -7 31 -2 13 8 31 10 150 16 42
2 80 7 84 10 10 11 15 8 7 -5z"/>
<path d="M26808 15935 c-2 -2 -28 -5 -58 -6 -30 -1 -59 -5 -65 -8 -5 -3 -17
-6 -25 -7 -29 -2 -70 -16 -70 -25 0 -5 -7 -9 -15 -9 -8 0 -15 -5 -15 -11 0 -5
-4 -7 -10 -4 -5 3 -7 0 -4 -8 3 -8 -2 -17 -11 -21 -9 -3 -14 -10 -11 -15 4 -5
-2 -17 -11 -27 -10 -10 -17 -19 -15 -21 1 -2 2 -12 2 -23 0 -17 -7 -19 -54
-19 -29 1 -62 -3 -72 -9 -11 -5 -25 -7 -31 -5 -7 3 -13 0 -13 -6 0 -6 -6 -11
-13 -11 -14 0 -77 -66 -77 -81 0 -5 -4 -9 -10 -9 -5 0 -7 -7 -4 -15 4 -9 0
-15 -7 -15 -12 0 -12 -2 0 -9 9 -6 10 -10 2 -16 -9 -5 -9 -11 1 -23 11 -13 11
-14 -1 -8 -10 6 -12 4 -7 -10 6 -19 -4 -19 -254 -19 -143 0 -260 -2 -260 -6 0
-3 -10 -5 -22 -4 -13 1 -27 0 -33 -4 -5 -3 -19 -7 -29 -8 -11 -2 -24 -7 -30
-12 -6 -5 -19 -7 -28 -6 -9 2 -19 -4 -22 -12 -3 -8 -10 -11 -16 -8 -5 3 -10 1
-10 -5 0 -6 -5 -8 -10 -5 -6 3 -13 -1 -16 -9 -3 -9 -9 -14 -13 -11 -4 2 -18
-6 -32 -19 -13 -12 -28 -24 -34 -27 -5 -2 -25 -22 -45 -44 -19 -22 -38 -42
-43 -43 -4 -2 -5 -8 -1 -13 3 -5 1 -9 -4 -9 -8 0 -36 -51 -32 -58 1 -2 -6 -14
-15 -28 -9 -13 -13 -29 -10 -34 3 -6 2 -10 -2 -10 -11 0 -10 -41 1 -59 6 -10
6 -12 -2 -7 -7 4 -12 2 -12 -3 0 -18 20 -13 27 7 9 21 75 94 81 88 2 -3 13 4
25 14 11 11 24 17 29 14 4 -3 8 0 8 5 0 6 9 11 19 11 11 0 23 5 27 11 3 6 15
9 25 6 11 -3 19 -1 19 4 0 4 211 8 473 8 259 0 466 -3 459 -6 -6 -2 -10 -9 -6
-14 3 -5 1 -9 -4 -9 -4 0 -14 -16 -22 -35 -8 -19 -18 -35 -22 -35 -5 0 -6 -4
-3 -10 3 -5 1 -10 -5 -10 -6 0 -8 -4 -5 -10 3 -5 1 -10 -5 -10 -6 0 -9 -4 -5
-9 3 -6 -3 -14 -12 -20 -10 -5 -14 -13 -10 -17 4 -4 -1 -16 -10 -27 -10 -11
-12 -17 -6 -13 9 5 11 2 7 -8 -3 -9 -11 -16 -16 -16 -6 0 -8 -7 -4 -15 3 -8 2
-15 -3 -15 -4 0 -8 -6 -8 -14 0 -12 4 -12 24 1 13 8 23 19 23 23 0 4 15 18 34
31 19 13 32 27 30 31 -3 4 4 8 15 8 12 0 21 5 21 11 0 5 5 7 10 4 6 -4 9 -1 8
6 -2 7 3 13 10 14 6 0 12 4 12 9 -1 4 17 17 40 28 22 11 40 25 40 31 0 6 3 7
7 4 3 -4 15 1 26 10 10 10 21 17 23 16 2 -1 30 9 61 24 32 14 68 26 80 27 13
0 23 4 23 8 0 5 28 12 95 23 6 1 12 3 15 4 28 13 162 20 213 10 20 -3 40 -2
43 2 3 5 15 4 27 -3 12 -7 31 -13 42 -13 11 0 26 -4 33 -8 6 -5 12 -6 12 -3 0
3 18 -1 39 -9 22 -7 42 -11 45 -8 3 4 6 1 6 -5 0 -10 54 -27 64 -20 3 2 12 -6
20 -17 9 -11 16 -17 16 -12 0 4 18 -4 40 -18 22 -14 44 -25 50 -25 5 0 10 -4
10 -10 0 -5 5 -10 11 -10 6 0 17 -7 26 -15 8 -8 18 -13 23 -10 5 3 11 -4 15
-15 3 -11 9 -19 13 -19 20 3 32 -2 27 -11 -3 -6 6 -15 20 -20 14 -5 23 -14 20
-20 -3 -5 -1 -10 6 -10 6 0 20 -10 30 -22 11 -11 19 -17 19 -13 0 5 6 1 13 -9
12 -16 13 -16 14 3 1 12 -3 21 -8 21 -6 0 -7 5 -4 10 3 6 0 10 -7 10 -9 0 -9
3 2 10 10 7 11 10 2 10 -7 0 -17 12 -23 28 -5 15 -18 43 -29 64 -10 20 -16 39
-12 44 4 4 2 4 -4 1 -6 -3 -16 9 -23 29 -7 18 -17 34 -22 34 -5 0 -9 7 -9 15
0 14 56 15 473 13 259 -2 479 -5 487 -8 8 -3 18 -9 21 -13 3 -5 12 -9 20 -11
31 -5 59 -18 59 -27 0 -5 7 -9 15 -9 8 0 15 -4 15 -10 0 -5 5 -10 11 -10 6 0
17 -7 25 -15 9 -8 12 -15 7 -15 -4 0 3 -7 15 -16 12 -8 20 -18 18 -22 -2 -4 2
-13 10 -19 8 -8 15 -9 19 -3 3 6 2 10 -2 10 -5 0 -9 18 -8 40 1 22 -3 40 -9
40 -5 0 -7 3 -3 6 3 4 -1 13 -9 21 -8 8 -11 19 -8 25 4 6 1 14 -5 18 -7 4 -13
14 -14 22 -2 8 -13 27 -25 42 -12 16 -19 33 -15 39 3 5 1 7 -5 3 -14 -8 -44
22 -36 36 4 7 2 8 -4 4 -7 -4 -12 -2 -12 4 0 6 -4 9 -9 6 -5 -3 -15 2 -22 11
-12 14 -12 16 0 8 10 -5 12 -4 7 4 -4 6 -11 9 -16 6 -4 -3 -22 6 -38 20 -16
13 -32 22 -36 18 -3 -3 -6 -1 -6 6 0 7 -4 10 -9 7 -5 -4 -11 -1 -13 4 -2 6
-13 12 -26 13 -12 0 -22 4 -22 8 0 7 -72 22 -107 23 -13 0 -23 2 -23 6 0 3
-102 5 -227 5 l-228 0 -6 45 c-9 62 -12 73 -24 86 -5 7 -19 24 -29 38 -10 14
-25 26 -32 26 -8 0 -14 4 -14 9 0 14 -39 23 -135 30 l-89 6 -13 40 c-22 70
-25 75 -34 69 -5 -3 -9 1 -9 8 0 21 -79 68 -107 63 -10 -1 -23 2 -29 6 -9 8
-253 14 -289 8 -5 -1 -14 -1 -19 0 -23 5 -218 2 -223 -2 -3 -3 -15 -2 -28 3
-13 5 -25 7 -27 5z m195 -110 c-3 -5 0 -4 8 3 16 15 33 16 23 1 -4 -8 -1 -8
13 -1 12 7 24 7 37 0 10 -6 16 -7 13 -2 -3 5 25 9 63 9 42 0 66 -4 63 -10 -3
-5 0 -4 8 3 7 6 17 12 22 12 4 0 5 -6 1 -12 -6 -10 -4 -10 8 0 11 9 18 10 23
2 3 -6 11 -8 16 -4 15 9 69 11 69 3 0 -3 13 -9 28 -12 17 -4 34 -17 42 -34 8
-15 18 -30 22 -33 4 -3 -4 -25 -18 -48 -19 -32 -34 -44 -66 -52 -32 -9 -43 -9
-49 2 -5 7 -9 9 -9 3 0 -15 -63 -17 -72 -2 -4 6 -8 7 -8 2 0 -12 -99 -14 -117
-2 -6 4 -14 4 -16 0 -3 -5 -78 -8 -166 -8 -106 1 -161 -3 -161 -10 0 -6 -3 -6
-8 1 -4 7 -20 11 -37 11 -35 0 -99 26 -88 36 3 4 1 7 -6 7 -7 0 -9 5 -6 10 3
6 2 10 -3 10 -5 0 -9 11 -9 25 0 14 4 25 9 25 5 0 7 4 3 9 -6 11 32 51 49 52
19 1 48 7 51 11 9 9 273 2 268 -7z m-1126 -402 c24 -2 32 0 28 8 -5 8 -2 8 11
1 11 -6 36 -9 57 -8 20 2 37 -1 37 -5 0 -4 8 -15 17 -24 16 -16 26 -68 12 -59
-4 2 -10 -5 -14 -16 -4 -11 -10 -18 -15 -15 -5 3 -10 0 -12 -7 -3 -8 -43 -12
-129 -14 -103 -2 -127 1 -143 14 -10 10 -20 16 -23 14 -3 -2 -11 8 -18 22 -11
21 -10 29 6 55 19 32 26 34 97 33 29 -1 40 3 36 10 -5 7 -2 8 6 3 7 -4 29 -10
47 -12z"/>
<path d="M26965 15141 c-4 -4 -34 -8 -95 -13 -19 -1 -37 -5 -40 -9 -3 -4 -19
-9 -35 -12 -17 -2 -38 -7 -47 -11 -9 -4 -22 -8 -30 -10 -7 -1 -28 -9 -47 -19
-18 -9 -37 -15 -41 -12 -4 3 -11 -2 -14 -11 -3 -8 -10 -12 -16 -9 -5 3 -10 1
-10 -5 0 -6 -4 -8 -10 -5 -5 3 -10 2 -10 -3 0 -5 -12 -15 -27 -23 -16 -7 -36
-21 -46 -31 -10 -10 -22 -16 -28 -13 -5 4 -9 -1 -9 -9 0 -9 -5 -16 -10 -16 -6
0 -40 -30 -77 -67 -37 -37 -61 -63 -53 -59 8 4 6 0 -4 -8 -11 -9 -16 -16 -10
-16 5 0 1 -5 -9 -11 -9 -6 -15 -14 -12 -20 4 -5 2 -9 -4 -9 -11 0 -26 -39 -22
-59 1 -7 -2 -10 -8 -6 -7 3 -8 0 -5 -9 3 -9 2 -16 -4 -16 -9 0 -28 -66 -23
-84 1 -5 -4 -13 -11 -17 -7 -5 -13 -16 -13 -26 0 -10 -4 -24 -8 -30 -5 -7 -5
-17 -2 -23 3 -5 0 -10 -7 -10 -8 0 -14 -14 -15 -32 -2 -18 -7 -34 -12 -36 -6
-2 -7 -10 -4 -19 3 -8 1 -18 -5 -22 -9 -5 -17 -34 -21 -74 -1 -5 -5 -6 -9 -3
-5 3 -9 0 -10 -7 -1 -19 -10 -72 -13 -74 -1 -2 -2 -6 -3 -10 -1 -5 -7 -17 -13
-28 -6 -11 -14 -37 -18 -58 -4 -20 -11 -37 -16 -37 -5 0 -8 -3 -7 -7 3 -17
-25 -103 -34 -103 -5 0 -7 -4 -4 -9 4 -5 2 -21 -4 -36 -7 -17 -7 -24 0 -20 6
3 10 1 10 -4 0 -6 -4 -11 -9 -11 -5 0 -10 -19 -10 -42 0 -24 -1 -52 -4 -63 -2
-11 -1 -30 4 -42 5 -13 4 -25 -2 -28 -5 -4 -7 -10 -4 -15 3 -5 8 -35 11 -67 2
-32 9 -60 15 -61 6 -3 6 -8 -1 -17 -7 -9 -6 -16 5 -25 8 -7 13 -16 10 -20 -3
-4 3 -25 12 -46 9 -22 18 -45 19 -53 2 -8 9 -18 16 -22 7 -5 9 -9 3 -9 -5 0
-4 -5 2 -11 6 -6 9 -17 7 -24 -3 -7 0 -16 7 -21 8 -5 10 -3 4 6 -5 9 -4 11 3
6 7 -4 12 -14 12 -22 0 -8 9 -25 20 -37 11 -12 18 -27 15 -35 -2 -7 0 -10 5
-7 6 3 10 -1 10 -9 0 -8 9 -20 20 -26 11 -6 18 -15 15 -21 -4 -5 -1 -8 7 -7 7
2 12 -3 10 -9 -1 -7 5 -13 15 -13 9 0 14 -3 10 -6 -3 -3 7 -17 24 -31 16 -14
26 -29 23 -34 -3 -5 -2 -9 3 -8 20 3 34 -2 28 -11 -3 -5 1 -10 9 -10 9 0 16
-4 16 -10 0 -5 7 -10 15 -10 8 0 15 -4 15 -10 0 -5 7 -10 16 -10 8 0 13 -4 10
-8 -3 -5 10 -15 29 -22 19 -8 35 -17 35 -21 0 -3 14 -12 30 -19 17 -7 30 -17
30 -22 0 -5 4 -7 9 -3 5 3 12 1 16 -5 4 -6 11 -8 16 -5 5 4 9 1 9 -5 0 -6 5
-8 10 -5 6 3 13 -1 16 -10 6 -13 8 -14 15 -3 7 10 9 11 9 0 0 -7 5 -10 10 -7
6 3 10 1 10 -5 0 -6 4 -9 9 -5 5 3 12 1 16 -5 4 -6 10 -8 15 -5 5 3 11 1 15
-4 3 -6 13 -7 21 -4 9 3 19 0 23 -6 5 -7 22 -13 39 -13 18 -1 32 -4 32 -9 0
-4 8 -6 18 -4 9 1 23 -3 31 -9 12 -9 13 -8 6 4 -7 12 -6 13 6 3 10 -8 68 -10
194 -7 209 4 225 5 225 17 0 4 5 5 10 2 6 -3 10 0 10 7 0 9 3 9 10 -2 7 -11
10 -11 10 -2 0 7 4 11 9 8 5 -3 25 1 44 9 19 8 37 11 41 8 3 -4 6 -1 6 6 0 7
5 9 10 6 6 -3 10 -2 10 3 0 5 10 9 23 8 12 -1 27 5 32 12 6 7 17 14 26 15 8 2
32 13 52 25 21 12 42 22 46 22 5 0 14 7 21 15 7 8 16 12 21 10 4 -3 13 3 19
14 7 13 16 18 27 14 10 -4 14 -2 10 4 -4 6 7 20 25 32 18 11 50 38 71 61 20
22 42 40 47 40 6 0 10 5 10 12 0 6 7 18 15 27 48 53 54 61 48 61 -5 0 0 5 10
11 9 6 15 14 12 20 -4 5 1 12 9 15 9 3 14 10 11 15 -3 4 3 13 14 19 12 6 18
16 15 25 -4 8 -1 15 6 15 6 0 9 3 7 8 -3 4 4 25 15 47 19 40 29 68 30 93 1 6
6 12 11 12 6 0 7 3 4 7 -4 3 -2 12 4 20 9 10 8 13 0 13 -7 0 -9 5 -6 10 4 6
12 7 18 4 9 -5 9 -4 0 6 -8 9 -9 19 -2 32 5 10 7 18 3 18 -3 0 -1 6 5 14 8 10
9 16 1 21 -10 6 -7 45 4 64 4 5 3 12 -2 14 -4 3 -7 46 -7 95 0 50 -3 88 -8 85
-5 -3 -8 3 -6 13 1 11 -3 30 -8 44 -6 14 -9 28 -6 33 2 4 -1 7 -7 7 -8 0 -8 6
0 20 9 16 8 22 -5 27 -13 5 -14 7 -3 14 10 7 11 9 0 9 -7 0 -10 5 -7 10 3 6 1
10 -5 10 -6 0 -8 5 -5 10 3 6 2 10 -4 10 -5 0 -8 8 -7 18 2 9 -1 20 -5 23 -5
3 -10 17 -11 32 -1 15 -6 27 -10 27 -4 0 -8 9 -8 19 0 11 -5 23 -10 26 -6 4
-8 11 -4 16 3 5 0 16 -6 24 -7 8 -9 15 -5 15 4 0 2 6 -4 13 -6 8 -12 22 -14
33 -2 10 -7 28 -11 39 -5 11 -14 36 -21 56 -8 20 -11 39 -8 43 4 3 1 6 -6 6
-8 0 -11 7 -7 15 3 8 0 15 -7 15 -8 0 -6 4 3 10 8 5 10 10 4 10 -12 0 -38 50
-29 58 2 3 0 11 -6 18 -6 8 -9 20 -5 29 3 8 0 14 -7 12 -7 -1 -11 4 -9 11 1 7
-5 15 -13 18 -8 3 -12 10 -9 15 3 5 -1 16 -8 24 -31 34 -38 45 -31 45 4 0 0 5
-9 11 -10 5 -18 14 -18 19 0 20 -164 170 -186 170 -8 0 -14 3 -14 8 0 9 -62
46 -72 44 -5 -1 -8 3 -8 8 0 6 -9 10 -20 10 -11 0 -20 5 -20 11 0 6 -7 8 -15
5 -9 -3 -18 0 -21 7 -2 7 -16 14 -31 15 -14 1 -31 6 -37 10 -6 4 -24 9 -41 11
-16 2 -32 6 -35 10 -3 4 -23 8 -45 10 -22 1 -56 4 -75 7 -47 7 -160 10 -165 5z
m34 -585 c1 15 104 15 113 1 6 -9 8 -9 8 1 0 6 9 12 20 12 11 0 20 -3 20 -8 0
-6 19 -9 113 -15 15 -1 27 -5 27 -9 0 -5 9 -8 19 -8 11 0 23 -5 26 -10 4 -6
10 -8 15 -5 5 3 11 1 15 -5 4 -6 11 -8 16 -5 5 4 9 2 9 -4 0 -6 7 -8 15 -5 8
4 15 1 15 -6 0 -6 5 -8 10 -5 6 3 10 1 10 -5 0 -6 5 -8 10 -5 6 3 10 1 10 -5
0 -7 7 -10 15 -6 8 3 15 1 15 -4 0 -6 7 -10 15 -10 8 0 15 -5 15 -11 0 -5 5
-7 10 -4 6 3 10 1 10 -4 0 -6 6 -11 13 -11 7 0 25 -11 40 -25 15 -14 27 -23
27 -19 0 4 20 -14 44 -39 25 -25 47 -43 50 -39 3 3 6 -3 6 -13 0 -10 3 -16 6
-12 8 7 54 -46 54 -63 0 -6 5 -8 10 -5 6 3 10 1 10 -4 0 -19 4 -26 24 -44 12
-10 14 -16 6 -12 -8 4 -6 -2 6 -12 11 -10 19 -24 16 -31 -2 -6 1 -12 6 -12 9
0 25 -37 23 -52 -1 -5 4 -8 10 -8 6 0 9 -9 6 -20 -3 -12 0 -20 7 -20 6 0 13
-12 14 -27 1 -16 7 -41 12 -58 5 -16 11 -54 12 -82 2 -29 7 -53 11 -53 5 0 5
-6 1 -12 -11 -18 -12 -48 -2 -54 4 -3 3 -14 -2 -25 -6 -11 -9 -23 -6 -27 3 -4
1 -14 -4 -22 -5 -9 -5 -19 2 -27 7 -8 7 -13 0 -13 -5 0 -13 -17 -17 -37 -4
-21 -12 -44 -18 -52 -9 -11 -9 -13 0 -8 14 9 -16 -55 -31 -65 -7 -5 -7 -8 2
-8 10 0 10 -3 -2 -15 -8 -8 -18 -24 -21 -35 -4 -11 -11 -17 -17 -14 -6 4 -8 2
-5 -4 10 -15 -3 -42 -20 -42 -8 0 -12 -4 -8 -10 3 -5 -2 -18 -12 -28 -10 -11
-33 -37 -52 -60 -19 -23 -38 -39 -41 -37 -4 3 -12 -7 -19 -22 -6 -14 -14 -23
-18 -20 -3 4 -14 -5 -25 -18 -11 -14 -24 -23 -29 -20 -5 4 -9 2 -9 -3 0 -11
-80 -66 -80 -55 0 5 -4 3 -8 -4 -4 -6 -14 -13 -22 -15 -8 -2 -21 -9 -28 -16
-8 -7 -18 -10 -23 -7 -5 4 -9 1 -9 -4 0 -6 -9 -11 -20 -11 -11 0 -20 -5 -20
-11 0 -5 -4 -8 -9 -4 -5 3 -20 1 -33 -4 -47 -19 -63 -25 -73 -27 -5 -1 -12 -3
-15 -4 -3 -1 -18 -3 -35 -5 -16 -1 -42 -7 -56 -13 -19 -8 -30 -7 -38 1 -6 6
-11 7 -11 1 0 -11 -161 -11 -180 1 -9 5 -11 4 -6 -3 4 -7 2 -12 -3 -12 -6 0
-11 3 -11 8 0 4 -10 7 -22 8 -13 0 -39 4 -58 8 -19 4 -48 9 -65 12 -16 2 -31
8 -33 13 -2 5 -12 7 -22 4 -12 -3 -20 0 -20 7 0 7 -7 10 -15 6 -9 -3 -18 1
-21 8 -3 8 -14 13 -25 11 -10 -2 -19 1 -19 6 0 6 -4 7 -10 4 -5 -3 -10 -1 -10
4 0 6 -9 11 -20 11 -11 0 -20 5 -20 10 0 6 -7 10 -15 10 -8 0 -15 5 -15 10 0
6 -9 10 -20 10 -11 0 -23 7 -26 15 -4 8 -11 15 -16 15 -10 0 -31 17 -95 78
-18 17 -38 32 -44 32 -6 0 -7 5 -4 10 3 6 1 10 -5 10 -6 0 -8 5 -4 12 4 6 3 8
-4 4 -6 -3 -21 8 -33 26 -13 18 -27 34 -31 36 -4 2 -8 13 -8 23 0 11 -4 17
-10 14 -9 -5 -15 16 -11 38 1 5 -3 6 -9 2 -5 -3 -10 1 -10 10 0 9 -4 13 -10
10 -6 -3 -7 1 -4 9 3 9 1 16 -6 16 -6 0 -8 5 -4 11 3 6 1 15 -5 19 -7 4 -13
17 -14 28 -1 12 -5 22 -10 22 -5 0 -7 6 -4 14 3 7 0 22 -7 32 -6 11 -12 31
-11 46 0 15 -3 24 -7 22 -4 -3 -8 0 -8 5 0 6 5 11 10 11 7 0 7 6 1 18 -6 11
-10 45 -9 78 0 32 -1 64 -2 69 -6 23 1 56 10 50 6 -3 10 -1 10 4 0 6 -6 11
-12 11 -9 0 -8 4 2 10 13 9 13 10 0 10 -9 0 -11 3 -5 8 6 4 12 18 14 32 1 14
9 37 17 53 11 21 12 27 2 28 -10 0 -10 2 0 6 6 2 12 10 12 16 0 6 8 19 18 30
12 15 13 18 2 12 -13 -8 -13 -7 0 11 8 10 19 22 23 25 5 3 9 10 9 15 2 23 11
44 18 44 5 0 12 10 15 21 4 12 23 37 42 55 19 19 31 34 26 34 -4 1 3 7 17 15
14 7 24 16 23 19 -2 3 -2 5 0 5 1 -1 21 16 44 37 74 69 171 131 196 126 4 -1
7 3 7 9 0 6 7 9 15 5 8 -3 15 -2 15 2 0 9 60 35 77 33 6 -1 14 3 18 8 3 6 12
8 20 4 8 -3 15 -1 15 5 0 9 70 24 120 27 8 0 20 4 27 8 7 4 23 5 38 3 15 -3
25 0 26 7 0 7 4 3 9 -8 5 -11 9 -15 9 -9z"/>
<path d="M16424 14847 c-8 -4 -19 -5 -24 -2 -6 3 -10 1 -10 -5 0 -6 -4 -9 -9
-5 -5 3 -12 1 -16 -5 -4 -6 -11 -8 -16 -5 -5 4 -9 1 -9 -5 0 -6 -4 -8 -10 -5
-5 3 -10 2 -10 -3 0 -5 -11 -15 -25 -22 -14 -7 -25 -20 -25 -27 0 -8 -4 -12
-9 -9 -8 5 -25 -22 -21 -33 1 -2 -5 -8 -13 -13 -9 -4 -14 -17 -12 -28 2 -11
-1 -19 -8 -17 -7 1 -11 -7 -9 -20 2 -13 -1 -23 -6 -23 -5 0 -8 -10 -7 -22 1
-13 -2 -31 -7 -40 -6 -12 -5 -18 2 -18 6 0 8 -5 3 -12 -12 -20 -12 -38 -1 -38
7 0 7 -5 -1 -13 -6 -8 -7 -17 -3 -21 8 -8 9 -14 11 -52 1 -17 5 -23 14 -18 9
6 9 4 -1 -8 -9 -11 -10 -18 -2 -23 5 -3 10 -15 10 -26 0 -11 7 -19 18 -20 9 0
12 -3 5 -5 -7 -3 2 -19 23 -40 19 -20 34 -40 34 -46 0 -7 5 -6 14 1 11 9 15 8
20 -4 3 -9 10 -13 16 -10 5 3 10 2 10 -3 0 -10 8 -12 80 -14 79 -2 130 7 141
23 5 8 9 10 9 5 0 -5 7 -3 15 4 8 7 15 10 15 7 0 -10 65 56 65 67 1 6 7 10 14
8 7 -1 10 2 6 8 -3 5 0 10 7 10 9 0 9 3 -2 10 -10 6 -11 10 -2 10 6 0 12 7 12
15 0 8 5 15 12 15 6 0 8 3 5 7 -4 3 -2 12 4 20 9 10 8 13 0 13 -8 0 -6 6 4 16
9 10 12 20 7 23 -13 8 -6 42 10 52 7 5 8 9 2 9 -6 0 -10 23 -10 56 1 31 -2 58
-7 61 -4 2 -5 8 -2 13 3 5 1 11 -3 14 -5 3 -8 17 -7 31 2 14 0 23 -5 20 -10
-6 -22 24 -14 36 3 5 1 9 -5 9 -5 0 -27 18 -49 39 -22 22 -43 37 -46 34 -3 -3
-11 -1 -18 4 -7 6 -21 9 -31 8 -9 -2 -15 0 -12 5 7 11 -103 17 -121 7z m51
-87 c3 6 12 7 18 3 7 -4 19 -8 27 -10 8 -1 16 -7 18 -12 2 -6 8 -11 14 -11 14
0 38 -26 31 -34 -4 -3 -1 -6 6 -6 8 0 11 -8 8 -20 -3 -11 -1 -18 4 -14 8 4 14
-33 10 -58 0 -5 3 -8 8 -8 5 0 12 -7 15 -16 3 -9 2 -12 -5 -9 -7 5 -8 -7 -4
-35 4 -28 3 -40 -4 -35 -16 9 -13 -1 5 -19 13 -13 13 -16 1 -16 -10 0 -14 -9
-12 -30 1 -16 -1 -30 -6 -30 -5 0 -6 -6 -3 -14 3 -7 -2 -20 -10 -29 -8 -8 -12
-17 -9 -21 4 -3 1 -6 -6 -6 -7 0 -9 -5 -5 -12 4 -7 3 -8 -5 -4 -6 4 -14 1 -17
-7 -7 -19 -124 -45 -124 -28 0 4 -10 8 -22 8 -13 1 -24 7 -26 13 -2 5 -10 10
-18 10 -8 0 -14 7 -14 15 0 7 -7 18 -16 23 -8 5 -18 24 -21 43 -3 19 -10 37
-16 41 -8 5 -8 8 -1 8 6 0 11 7 11 15 0 8 -3 15 -6 15 -4 0 -7 13 -7 30 -1 20
2 27 10 23 8 -5 8 -3 -1 8 -9 12 -11 44 -4 92 1 5 5 6 10 3 5 -4 7 3 4 14 -3
11 0 27 7 35 7 8 10 15 7 15 -3 0 4 11 17 25 13 14 28 25 35 25 6 0 11 5 11
11 0 6 9 9 20 6 11 -3 23 -1 26 4 4 6 11 6 19 -1 9 -8 15 -8 20 0z"/>
<path d="M13351 14841 c-8 -5 -20 -7 -28 -4 -7 3 -13 0 -13 -6 0 -6 -3 -10 -7
-10 -25 4 -43 -2 -37 -13 5 -8 2 -9 -10 -5 -11 4 -15 3 -11 -4 4 -6 -2 -13
-13 -16 -11 -2 -23 -14 -25 -25 -3 -11 -10 -17 -17 -13 -6 3 -10 3 -9 -2 3
-20 -14 -52 -25 -46 -6 3 -8 3 -4 -2 4 -4 1 -20 -8 -36 -11 -22 -12 -29 -2
-29 9 0 8 -3 -2 -10 -8 -5 -12 -10 -9 -10 4 0 3 -16 -1 -35 -5 -24 -4 -35 4
-35 6 0 3 -5 -7 -11 -15 -9 -16 -13 -5 -26 11 -13 11 -17 0 -21 -10 -3 -8 -8
5 -18 11 -8 13 -13 5 -14 -10 0 -10 -5 -2 -20 6 -11 8 -20 5 -20 -3 0 -1 -10
6 -21 7 -15 8 -19 0 -15 -7 5 -9 1 -5 -8 3 -9 9 -16 13 -16 4 0 8 -10 8 -22 1
-13 9 -28 18 -34 8 -6 15 -15 15 -19 0 -8 47 -54 55 -55 3 0 10 0 16 0 5 0 7
-4 4 -10 -3 -6 1 -7 9 -4 9 3 16 1 16 -4 0 -6 9 -9 20 -7 11 2 20 0 20 -4 0
-13 142 -4 151 11 7 11 9 10 9 -1 0 -11 5 -9 22 5 14 13 19 14 14 4 -4 -8 -1
-7 8 4 8 10 20 15 27 10 7 -4 10 -3 6 2 -3 5 8 20 24 33 16 13 29 29 29 37 0
8 3 14 8 14 4 0 16 12 26 27 11 14 14 23 8 19 -8 -5 -10 -2 -6 8 3 9 9 14 14
11 4 -2 6 7 4 20 -1 14 2 27 7 31 5 3 9 10 9 15 0 6 -6 7 -12 3 -10 -6 -10 -5
-1 7 15 19 15 179 -1 198 -9 12 -8 13 4 6 12 -6 13 -5 3 6 -7 7 -13 21 -13 31
0 10 -5 18 -11 18 -5 0 -8 4 -5 9 3 5 -1 11 -9 15 -8 3 -15 11 -15 18 0 8 -9
20 -19 28 -11 7 -17 18 -14 24 3 6 3 8 -2 4 -4 -4 -14 -3 -22 3 -7 6 -13 8
-13 3 0 -5 -4 -3 -9 4 -4 7 -18 14 -29 15 -12 1 -22 4 -22 8 0 10 -134 10
-149 0z m61 -86 c5 -6 8 -6 8 2 0 9 8 9 30 2 17 -6 30 -15 30 -20 0 -4 7 -6
15 -3 8 4 15 1 15 -6 0 -16 26 -40 35 -32 5 4 5 1 1 -6 -4 -7 -4 -21 0 -30 4
-9 8 -20 9 -24 2 -5 4 -9 5 -10 2 -2 4 -16 5 -33 1 -16 6 -39 10 -49 5 -11 5
-17 -1 -14 -5 3 -9 -11 -9 -32 -1 -21 3 -36 7 -34 4 3 8 0 8 -5 0 -6 -4 -11
-9 -11 -5 0 -8 -11 -7 -25 2 -14 -3 -30 -10 -36 -8 -6 -12 -15 -9 -19 3 -5 -9
-23 -27 -41 -19 -19 -22 -24 -8 -13 l25 19 -18 -22 c-11 -12 -25 -19 -33 -16
-8 3 -14 0 -14 -7 0 -8 -9 -11 -25 -8 -14 3 -28 2 -30 -2 -5 -9 -16 -8 -55 4
-40 12 -70 28 -65 36 3 4 -4 18 -16 31 -11 12 -18 28 -15 35 3 7 0 14 -5 16
-5 2 -11 29 -12 61 -1 31 -5 57 -9 57 -4 0 -3 11 2 25 7 18 6 25 -3 26 -9 0
-9 2 0 5 7 3 9 12 6 21 -5 12 -3 14 8 8 12 -7 12 -6 1 7 -9 12 -10 18 -2 23 7
4 10 16 7 26 -3 11 -2 17 2 15 4 -3 13 9 20 25 7 17 16 28 19 25 3 -3 10 1 17
10 6 9 23 17 38 17 15 1 27 5 27 10 0 10 23 4 32 -8z"/>
<path d="M17970 14840 c0 -5 -8 -7 -17 -6 -10 2 -24 -3 -31 -11 -8 -7 -18 -11
-23 -8 -5 4 -9 2 -9 -4 0 -5 -9 -13 -21 -16 -11 -4 -18 -9 -16 -12 7 -6 -30
-43 -44 -43 -5 0 -8 -4 -4 -9 3 -5 -2 -17 -11 -25 -11 -11 -12 -16 -3 -16 8 0
6 -5 -5 -13 -9 -7 -17 -17 -16 -22 2 -6 1 -13 0 -17 -1 -5 -4 -12 -5 -18 -1
-5 -3 -11 -5 -12 -7 -10 -6 -38 1 -38 6 0 7 -5 4 -10 -4 -6 -10 -8 -14 -5 -5
2 -5 -12 -2 -33 4 -20 6 -47 5 -59 -1 -13 3 -23 9 -23 5 0 4 -7 -3 -15 -9 -11
-9 -15 -1 -15 7 0 9 -4 6 -10 -3 -5 -2 -10 4 -10 6 0 8 -7 5 -15 -4 -8 -1 -15
5 -15 6 0 8 -7 5 -15 -4 -8 -1 -15 7 -15 7 0 10 -3 6 -6 -8 -9 16 -33 27 -26
5 3 6 0 2 -7 -10 -15 33 -61 57 -61 9 0 17 -4 17 -10 0 -5 9 -10 20 -10 11 0
20 -4 20 -9 0 -6 9 -8 20 -6 11 2 22 0 24 -4 6 -9 132 -6 177 5 19 4 37 7 42
6 4 -1 7 2 7 8 0 6 3 9 8 8 10 -2 45 14 58 27 6 6 8 19 4 30 -4 11 -3 26 2 33
7 8 7 17 -1 26 -9 10 -9 16 -1 21 8 5 8 10 0 20 -14 17 16 48 41 42 11 -3 22
-1 25 4 3 5 0 9 -6 9 -6 0 -8 5 -4 12 4 7 8 21 9 33 0 20 -4 20 -111 19 -61
-1 -116 -4 -121 -7 -5 -3 -7 -21 -5 -40 4 -31 6 -33 38 -31 23 2 32 -1 28 -8
-4 -5 -1 -14 6 -18 9 -6 9 -12 1 -29 -7 -13 -8 -21 -2 -21 7 0 7 -9 2 -22 -5
-13 -12 -21 -16 -20 -4 2 -11 -2 -15 -9 -11 -16 -120 -21 -139 -6 -12 9 -13 9
-7 0 12 -21 -8 -15 -24 7 -15 21 -36 28 -24 8 4 -7 3 -8 -4 -4 -7 4 -12 13
-12 21 0 7 -7 15 -15 19 -8 3 -15 12 -15 21 0 8 -4 15 -10 15 -5 0 -10 9 -10
20 0 11 -6 20 -12 20 -9 0 -9 3 -3 8 13 9 13 38 0 35 -6 -1 -10 29 -10 68 0
38 4 69 9 69 5 0 6 3 3 7 -4 3 -1 13 6 21 10 13 9 14 -3 7 -12 -6 -13 -5 -2 6
6 7 12 21 12 31 0 10 4 18 9 18 5 0 12 12 16 27 5 21 8 24 16 12 7 -12 9 -11
9 4 0 9 7 17 15 17 8 0 15 4 15 9 0 5 8 8 18 6 9 -1 22 1 27 6 13 10 55 8 55
-3 0 -4 5 -8 11 -8 5 0 7 6 3 13 -6 8 -3 8 9 -1 9 -8 21 -11 27 -7 5 3 10 1
10 -5 0 -6 3 -9 8 -7 16 10 36 -31 34 -69 -1 -18 5 -23 37 -26 22 -2 37 0 35
4 -2 4 4 11 13 17 10 6 13 11 7 11 -7 0 -11 19 -10 51 2 33 -3 56 -12 65 -18
19 -82 45 -92 39 -5 -3 -11 -1 -14 4 -7 11 -166 12 -166 1z"/>
<path d="M10100 14832 c-15 -2 -30 -13 -37 -27 -6 -14 -7 -23 -2 -19 5 3 9 -2
9 -10 0 -9 7 -17 15 -17 30 -3 34 -4 47 -16 10 -10 9 -13 -1 -13 -11 0 -11 -3
-1 -15 8 -10 9 -15 2 -15 -12 0 -10 -59 3 -80 6 -9 4 -11 -6 -5 -12 8 -12 6 0
-8 7 -9 9 -17 3 -17 -5 0 -8 -9 -5 -21 4 -12 0 -25 -8 -30 -12 -7 -12 -9 0 -9
8 0 11 -7 8 -20 -3 -11 -1 -20 4 -20 5 0 5 -10 1 -22 -9 -28 -8 -81 2 -97 4
-6 2 -11 -5 -11 -8 0 -8 -4 1 -15 9 -11 9 -15 1 -15 -7 0 -9 -9 -5 -24 4 -17
1 -25 -12 -30 -10 -4 -20 -2 -24 4 -4 7 -12 5 -21 -6 -12 -16 -12 -17 1 -9 13
8 13 6 2 -8 -20 -24 -6 -55 26 -56 30 -1 36 -1 120 -2 31 0 66 0 77 0 11 0 21
5 23 11 2 5 7 8 12 5 10 -6 1 35 -11 51 -5 6 -5 15 -1 19 4 5 0 4 -8 0 -24
-14 -69 -13 -75 3 -3 7 0 22 5 32 7 13 7 21 -1 26 -8 4 -7 9 2 15 12 7 12 9 0
9 -10 0 -11 4 -3 13 13 15 13 29 0 44 -12 15 13 29 36 20 7 -3 19 0 25 6 8 8
11 7 11 -3 0 -13 2 -13 10 0 7 11 10 11 10 2 0 -7 5 -10 10 -7 6 4 8 11 5 16
-3 5 1 6 10 3 9 -4 27 -1 41 6 13 8 27 11 30 7 8 -8 34 18 34 33 0 6 5 8 10 5
6 -4 19 12 29 34 10 23 20 39 22 37 2 -2 4 29 4 70 1 40 -3 68 -7 61 -5 -8 -8
-5 -8 8 0 11 -9 27 -19 35 -11 7 -18 17 -15 22 3 4 -2 8 -10 8 -9 0 -16 5 -16
12 0 6 -3 8 -7 5 -3 -4 -11 -3 -17 2 -7 6 -25 13 -41 16 -32 7 -243 12 -285 7z
m220 -85 c8 -3 27 -8 42 -11 15 -3 30 -15 33 -26 3 -11 10 -20 14 -20 9 0 6
-54 -4 -71 -5 -8 -4 -10 3 -5 7 4 12 2 12 -3 0 -6 -8 -11 -17 -12 -10 0 -13
-3 -6 -6 8 -3 5 -12 -10 -27 -12 -13 -25 -22 -29 -20 -3 2 -14 -3 -22 -12 -9
-9 -16 -11 -16 -4 0 6 -5 8 -12 3 -17 -10 -39 -10 -62 0 -15 7 -16 11 -5 18
12 7 12 9 0 9 -11 0 -12 3 -3 12 7 7 8 17 1 30 -7 13 -6 18 3 18 9 0 9 3 -2
10 -13 9 -13 10 0 10 13 0 13 2 1 9 -12 8 -12 12 -2 25 11 12 11 16 1 16 -9 0
-10 3 -1 13 6 8 8 17 4 21 -4 3 -8 12 -9 19 -2 12 55 15 86 4z"/>
<path d="M11530 14827 c0 -4 -5 -5 -10 -2 -12 7 -9 -23 4 -44 7 -11 6 -12 -5
-6 -11 7 -12 6 -2 -6 7 -9 25 -14 42 -13 28 2 30 0 19 -19 -8 -16 -8 -22 1
-25 6 -2 8 -9 4 -15 -11 -18 -12 -38 -2 -31 5 3 5 -6 -1 -20 -7 -18 -6 -26 1
-26 8 0 8 -4 0 -14 -9 -11 -9 -15 1 -19 11 -4 10 -6 0 -6 -8 -1 -10 -6 -6 -13
11 -18 12 -48 2 -54 -5 -3 -3 -13 4 -22 10 -12 10 -14 1 -8 -7 4 -13 2 -13 -3
0 -6 5 -11 11 -11 6 0 7 -5 2 -12 -11 -19 -13 -39 -2 -32 5 3 5 -6 -1 -20 -7
-18 -6 -26 1 -26 8 0 7 -5 -1 -15 -10 -12 -10 -15 1 -15 12 0 12 -2 0 -9 -9
-6 -10 -10 -2 -16 9 -5 9 -10 1 -20 -8 -10 -7 -15 2 -19 7 -3 -1 -5 -19 -3
-18 2 -30 0 -27 -5 3 -4 -3 -8 -13 -8 -15 0 -16 -2 -3 -10 8 -5 10 -10 4 -10
-6 0 -11 -10 -10 -22 1 -13 7 -23 16 -23 8 0 18 -4 22 -10 5 -6 8 -6 8 1 0 7
15 9 45 4 24 -4 50 -3 56 1 7 4 23 3 36 -2 17 -6 22 -6 17 2 -4 8 0 9 15 4 19
-6 21 -3 21 33 0 38 -1 39 -30 37 -16 -1 -27 1 -24 6 3 5 0 9 -6 9 -8 0 -8 6
0 20 7 14 7 20 0 20 -5 0 -10 5 -10 11 0 5 3 8 8 5 4 -2 7 13 7 34 0 21 -3 36
-7 33 -5 -2 -8 1 -8 6 0 6 5 11 10 11 7 0 7 6 2 18 -20 38 -6 43 134 41 121
-1 166 -8 132 -22 -10 -4 -10 -6 0 -6 6 -1 12 -10 12 -20 0 -11 -6 -22 -12
-24 -10 -4 -10 -6 0 -6 6 -1 12 -6 12 -12 0 -5 -4 -7 -10 -4 -6 3 -7 -1 -4 -9
3 -9 11 -13 18 -9 6 3 3 -3 -7 -14 -14 -16 -15 -23 -6 -29 8 -5 10 -3 4 6 -5
9 -4 11 4 6 8 -6 9 -12 2 -20 -6 -7 -8 -16 -5 -19 11 -11 -21 -34 -41 -31 -18
3 -21 -3 -21 -36 -1 -22 1 -38 3 -36 3 2 18 0 34 -4 16 -5 31 -5 34 0 3 5 19
5 35 0 17 -5 28 -5 25 -1 -2 5 9 8 25 7 17 -1 30 -4 30 -8 0 -18 38 7 47 33 6
16 7 27 2 23 -5 -3 -9 2 -9 10 0 9 -7 13 -20 11 -11 -2 -20 1 -20 6 0 6 -4 8
-8 5 -4 -2 -9 4 -9 15 -1 11 2 17 6 15 4 -3 8 1 8 9 0 8 -4 12 -9 9 -13 -8 -6
29 7 38 6 5 5 8 -2 8 -7 0 -13 9 -13 20 0 11 6 20 13 20 8 0 7 4 -3 10 -12 8
-13 13 -3 29 14 23 7 54 -11 45 -6 -3 -2 2 8 10 18 14 15 21 -6 17 -5 0 -8 3
-8 9 0 6 5 10 12 10 6 0 8 3 5 7 -4 3 -1 13 6 21 9 13 9 14 0 8 -7 -4 -13 -3
-13 1 0 5 6 15 13 22 10 11 10 13 0 7 -9 -5 -13 1 -13 18 0 13 6 27 13 29 10
4 10 6 0 6 -7 1 -13 8 -13 16 0 8 6 15 13 15 7 0 8 3 2 8 -5 4 -11 17 -11 29
-1 19 3 22 22 19 16 -3 25 1 29 15 4 11 11 16 18 13 9 -5 9 -4 0 6 -6 7 -9 19
-6 26 6 17 13 16 -118 18 -92 2 -108 -1 -118 -16 -7 -11 -7 -19 -1 -23 15 -9
12 -27 -2 -19 -9 5 -10 4 -3 -4 9 -10 33 -17 66 -21 10 -1 8 -51 -2 -57 -5 -3
-9 -11 -9 -17 0 -7 4 -6 10 3 6 10 9 6 8 -18 -1 -20 -5 -29 -12 -25 -6 4 -5
-1 2 -10 8 -9 12 -24 10 -34 -3 -16 -16 -18 -128 -19 -69 -1 -131 2 -139 6
-16 9 -23 50 -8 50 5 0 4 7 -3 15 -10 12 -10 15 1 15 11 0 11 2 -1 10 -11 7
-11 10 -2 10 8 0 10 5 6 12 -4 7 -8 23 -9 36 0 18 4 22 17 19 10 -3 16 -1 12
4 -3 5 5 9 17 9 17 0 20 5 17 25 -4 18 -1 25 11 25 13 1 12 3 -4 12 -23 14
-225 18 -225 5z"/>
<path d="M14676 14816 c-3 -11 -1 -25 4 -31 6 -7 7 -15 3 -19 -10 -10 -11 -76
-2 -76 5 0 9 -8 9 -17 0 -12 3 -14 8 -6 4 7 13 9 21 4 8 -6 21 -3 32 7 15 13
16 19 6 31 -9 12 -9 13 1 7 6 -4 12 -2 12 3 0 6 -4 11 -10 11 -5 0 -7 6 -5 13
3 7 27 12 65 13 32 0 57 -3 54 -8 -3 -4 0 -8 6 -8 8 0 8 -6 0 -20 -8 -15 -8
-20 1 -20 8 0 8 -4 -1 -15 -10 -12 -10 -15 0 -15 9 0 9 -4 -1 -17 -12 -15 -12
-16 1 -8 13 8 13 7 1 -8 -10 -13 -10 -17 -1 -17 10 0 10 -3 0 -15 -10 -12 -10
-15 1 -15 11 0 11 -2 -1 -10 -12 -8 -12 -10 -1 -10 10 0 11 -3 2 -13 -8 -10
-7 -17 1 -25 9 -9 9 -12 -2 -12 -11 0 -11 -3 -2 -12 7 -7 8 -17 2 -29 -7 -12
-6 -20 1 -25 8 -4 7 -9 -2 -15 -12 -7 -12 -9 0 -9 11 0 11 -3 0 -16 -10 -13
-10 -17 0 -24 11 -6 11 -9 0 -13 -12 -5 -12 -6 0 -6 11 -1 11 -4 0 -18 -8 -9
-9 -14 -3 -10 6 3 11 0 11 -8 0 -8 -4 -12 -9 -9 -12 8 -10 -10 4 -24 9 -9 9
-12 -1 -12 -7 0 -10 -4 -7 -8 3 -5 -13 -7 -34 -6 -26 1 -44 -4 -52 -14 -10
-12 -10 -14 0 -8 15 9 15 1 2 -25 -6 -10 -7 -20 -3 -20 4 -1 22 -2 39 -4 17
-1 35 -5 41 -8 5 -3 15 -2 23 3 7 4 23 5 34 1 12 -4 32 -5 46 -1 14 4 35 3 48
-1 12 -5 22 -5 22 0 0 4 11 7 23 6 15 -2 24 2 24 11 0 7 -5 10 -11 7 -6 -4 -5
1 3 10 11 14 11 17 0 17 -11 0 -11 2 1 10 17 11 15 12 -49 14 -29 1 -36 6 -42
29 -4 15 -3 27 2 27 6 0 5 8 -1 20 -6 11 -7 20 -2 20 5 0 6 18 2 40 -4 22 -4
40 -1 40 4 0 7 9 7 20 0 11 -5 20 -10 20 -5 0 -1 6 9 14 18 13 18 13 -1 24
-10 6 -14 12 -9 12 6 0 9 21 6 51 -2 38 0 50 9 44 7 -4 4 4 -5 19 -11 16 -13
26 -6 26 9 0 9 5 0 21 -8 15 -8 19 0 15 6 -4 11 -2 11 3 0 6 -5 11 -11 11 -6
0 -5 5 3 13 7 7 36 13 66 13 l52 0 -3 -41 c-3 -41 -2 -41 32 -44 19 -1 37 -4
41 -6 7 -5 9 4 12 55 1 19 7 38 13 42 7 5 6 8 -2 8 -6 0 -10 13 -9 30 1 17 -3
31 -8 31 -6 1 -122 2 -258 3 -237 1 -247 0 -252 -18z"/>
<path d="M19335 14831 c3 -2 -3 -9 -12 -16 -18 -13 -9 -40 10 -28 7 4 6 -1 -2
-10 -8 -10 -11 -20 -7 -24 3 -3 6 -1 6 7 0 10 3 10 17 -1 9 -8 18 -13 20 -11
13 9 21 -3 21 -33 0 -20 -5 -35 -11 -35 -8 0 -8 -3 -2 -8 14 -10 18 -49 5 -57
-8 -5 -7 -11 1 -22 10 -12 10 -19 0 -35 -11 -18 -11 -20 4 -14 16 6 16 5 2
-17 -12 -19 -13 -27 -4 -36 9 -9 9 -16 -1 -31 -6 -10 -8 -21 -3 -24 5 -3 7
-38 6 -78 -4 -93 -3 -88 -19 -82 -15 6 -48 -34 -40 -48 3 -4 0 -8 -7 -8 -21 0
-3 -11 27 -16 16 -2 35 -7 42 -9 8 -3 10 0 6 6 -4 7 0 9 12 6 19 -6 84 -11 94
-7 21 7 40 7 40 -2 0 -7 4 -7 13 0 7 6 12 26 12 44 -1 30 -4 33 -33 34 -38 1
-61 18 -41 29 8 6 10 4 4 -5 -5 -8 -4 -11 3 -6 15 9 3 38 -12 29 -6 -3 -3 3 7
14 11 13 14 24 8 27 -16 10 -9 95 8 101 9 4 17 1 19 -5 3 -8 8 -8 18 1 11 9
17 3 31 -28 10 -21 23 -41 28 -45 6 -5 4 -8 -4 -8 -9 0 -6 -7 9 -20 13 -12 20
-26 16 -35 -3 -9 -2 -14 2 -11 4 3 14 -4 21 -16 10 -16 10 -19 -1 -13 -7 3 -5
0 5 -8 9 -8 17 -21 17 -29 0 -26 34 -48 68 -44 17 2 34 1 37 -2 8 -8 64 -8 58
1 -2 4 2 7 10 7 11 0 15 28 7 50 -1 3 -2 8 -2 11 1 3 -14 5 -31 5 -36 -1 -62
14 -43 26 7 5 5 8 -6 8 -11 0 -18 8 -18 20 0 11 -4 20 -10 20 -5 0 -10 9 -10
20 0 11 -5 20 -11 20 -5 0 -7 5 -4 10 3 6 1 10 -5 10 -6 0 -8 5 -5 10 3 6 1
10 -4 10 -6 0 -11 9 -11 19 0 11 -6 21 -12 24 -9 3 -2 15 19 35 17 16 34 27
37 24 3 -3 6 0 6 7 0 7 4 9 10 6 5 -3 7 0 4 8 -3 8 0 18 5 22 6 3 8 11 5 17
-5 8 -1 9 11 4 15 -5 16 -4 5 9 -10 12 -10 15 1 15 12 0 12 2 0 9 -11 7 -11 9
0 14 11 4 11 6 1 6 -10 1 -10 6 -2 21 6 11 7 20 2 20 -7 0 -11 15 -14 57 -1 7
-5 10 -10 7 -4 -3 -8 2 -8 10 0 9 -4 16 -9 16 -5 0 -16 7 -25 15 -8 8 -24 16
-36 18 -12 2 -25 9 -30 16 -6 10 -9 10 -15 1 -6 -9 -10 -9 -16 1 -7 12 -9 12
-9 0 0 -9 -4 -10 -12 -4 -11 8 -163 10 -193 3 -5 -1 -12 -1 -15 0 -11 4 -59 5
-55 1z m255 -86 c28 -5 46 -15 60 -35 20 -29 28 -100 10 -100 -5 0 -6 -7 -3
-17 4 -9 2 -14 -4 -10 -5 3 -17 -3 -26 -14 -10 -11 -22 -17 -27 -14 -6 3 -10
2 -10 -4 0 -5 -11 -8 -25 -6 -14 1 -25 -1 -25 -5 0 -4 -11 -5 -25 -2 -21 4
-23 7 -14 24 7 14 7 18 1 14 -14 -9 -13 55 2 73 8 11 8 13 -1 8 -8 -5 -11 7
-9 45 2 29 4 54 5 54 2 2 47 -4 91 -11z"/>
<path d="M21033 14829 c-10 -4 -13 -8 -8 -9 6 0 2 -5 -8 -11 -15 -9 -16 -13
-5 -27 10 -12 10 -14 1 -8 -12 7 -17 -6 -16 -41 1 -7 -3 -13 -9 -13 -5 0 -6
-4 -3 -10 3 -5 -1 -20 -10 -33 -8 -13 -12 -27 -8 -30 3 -4 0 -7 -7 -7 -7 0
-10 -3 -7 -7 4 -3 0 -17 -9 -31 -9 -13 -11 -21 -5 -18 7 5 9 1 5 -8 -3 -9 -9
-16 -13 -16 -4 0 -8 -9 -9 -20 -4 -44 -6 -50 -14 -50 -5 0 -6 -4 -3 -10 3 -5
2 -10 -4 -10 -6 0 -8 -7 -5 -15 4 -8 1 -15 -5 -15 -6 0 -8 -7 -5 -15 4 -8 1
-15 -7 -15 -7 0 -10 -3 -6 -6 3 -4 0 -21 -8 -39 -7 -19 -11 -36 -7 -39 3 -3 1
-6 -5 -6 -6 0 -10 -8 -9 -17 0 -10 -5 -17 -11 -15 -7 1 -13 -2 -13 -7 0 -4
-11 -7 -25 -6 -14 2 -23 -1 -19 -6 3 -5 2 -9 -3 -9 -4 0 -8 -11 -8 -25 0 -27
15 -35 55 -31 14 1 29 0 34 -3 14 -7 65 -7 60 0 -2 4 16 4 39 2 42 -5 43 -4
41 23 -2 48 -3 51 -21 51 -10 0 -23 1 -29 2 -13 1 -15 31 -2 31 5 0 7 4 4 8
-3 5 1 19 8 33 7 13 14 29 15 34 2 6 7 9 12 8 5 -2 9 1 9 5 0 9 61 9 76 -1 6
-3 14 -4 18 0 10 10 86 7 97 -4 6 -6 11 -20 12 -32 1 -11 4 -21 8 -21 10 0 18
-40 12 -56 -3 -8 -10 -14 -17 -13 -35 4 -43 -2 -42 -31 1 -17 4 -31 8 -32 50
-10 100 -13 104 -7 2 5 16 4 30 -1 14 -6 23 -6 20 -1 -3 4 8 8 24 7 17 -1 30
-4 30 -8 0 -4 10 -4 23 1 17 6 22 17 23 43 1 34 0 34 -39 34 -35 0 -41 3 -44
24 -2 13 -8 29 -14 36 -7 8 -6 14 3 17 10 4 10 6 1 6 -7 1 -13 8 -13 17 0 8
-4 13 -8 10 -4 -2 -7 11 -7 29 1 19 -2 32 -6 30 -8 -6 -19 19 -19 46 0 10 -4
19 -10 19 -5 0 -10 14 -10 30 0 17 -4 30 -9 30 -6 0 -8 9 -6 20 3 14 -2 20
-13 20 -15 0 -15 2 -2 10 8 5 10 10 4 10 -11 0 -13 7 -17 54 -1 13 -5 22 -9
19 -7 -4 -12 20 -9 40 0 4 -6 7 -15 7 -12 0 -14 3 -6 13 7 8 6 18 -4 31 -7 10
-11 23 -8 27 6 10 0 11 -63 13 -23 1 -50 -1 -60 -5z m50 -131 c-2 -5 1 -8 7
-8 6 0 8 -4 5 -10 -3 -5 -2 -10 4 -10 6 0 8 -7 5 -15 -4 -9 0 -15 7 -15 12 0
12 -2 1 -9 -11 -7 -11 -10 0 -22 7 -8 15 -23 16 -34 2 -11 8 -24 13 -29 5 -6
3 -16 -4 -25 -8 -9 -8 -12 -1 -8 7 4 14 -2 17 -13 4 -14 0 -20 -11 -21 -10 -1
-34 -2 -55 -4 -26 -2 -35 0 -31 8 5 8 2 8 -7 0 -7 -7 -17 -13 -22 -13 -4 0 -5
6 -1 13 5 8 2 8 -9 -2 -14 -11 -17 -11 -18 0 -2 26 3 44 14 51 7 4 8 8 3 8 -5
0 -2 8 5 17 11 13 11 15 1 9 -11 -6 -11 -4 -3 10 16 32 28 65 30 90 0 8 5 13
10 10 4 -3 7 8 5 24 -3 26 -1 28 10 18 8 -7 12 -16 9 -20z"/>
<path d="M22381 14808 c-6 -18 -6 -28 0 -28 5 0 8 -5 7 -11 -2 -6 3 -14 11
-17 8 -3 11 0 7 7 -10 16 -2 14 22 -7 16 -14 18 -22 10 -36 -8 -14 -8 -17 2
-11 9 6 9 3 1 -14 -8 -13 -8 -21 -2 -21 7 0 7 -9 1 -25 -7 -17 -6 -25 1 -25 8
0 7 -5 -1 -15 -8 -10 -9 -15 -1 -15 7 0 8 -8 1 -26 -7 -18 -7 -23 1 -18 8 4 8
0 0 -15 -8 -13 -8 -21 -2 -21 7 0 7 -9 1 -25 -7 -17 -6 -25 1 -25 8 0 7 -5 -1
-15 -8 -10 -9 -15 -1 -15 7 0 8 -8 1 -26 -7 -18 -7 -23 1 -18 8 4 8 0 0 -15
-9 -16 -9 -21 1 -21 9 0 9 -3 -2 -10 -12 -8 -12 -10 -1 -10 11 0 11 -3 0 -17
-12 -15 -12 -16 1 -8 12 7 13 6 3 -7 -7 -8 -10 -17 -8 -20 3 -3 -7 -4 -23 -2
-18 2 -29 -1 -29 -9 0 -7 -3 -23 -7 -36 -6 -16 -5 -21 3 -17 6 4 11 3 11 -2 0
-12 59 -22 66 -11 2 4 17 5 32 2 15 -3 34 -5 42 -5 8 1 36 2 62 2 31 1 48 6
52 16 4 10 2 13 -7 8 -8 -5 -7 -2 2 9 9 12 10 17 2 17 -7 0 -9 5 -6 10 3 6 -1
10 -9 10 -9 0 -16 5 -16 11 0 8 -4 8 -12 1 -15 -11 -58 2 -58 18 0 6 4 9 9 5
5 -3 13 0 17 6 4 7 3 9 -4 5 -6 -3 -13 -2 -17 4 -3 5 -1 10 6 10 8 0 8 4 -1
15 -9 11 -9 15 -1 15 8 0 9 5 1 19 -13 26 -13 34 3 25 8 -5 8 -2 -2 9 -9 12
-10 17 -2 17 7 0 9 5 5 11 -4 7 5 10 28 8 18 -2 39 0 46 5 7 4 12 2 12 -6 0
-10 2 -10 9 1 5 7 13 11 19 7 6 -3 13 -2 17 3 3 6 12 8 20 4 8 -3 15 0 15 7 0
6 4 9 8 6 11 -6 82 57 82 73 0 6 4 11 10 11 5 0 7 7 4 15 -4 8 -1 15 4 15 6 0
9 9 7 20 -2 11 1 22 6 25 5 4 6 12 2 18 -4 7 -8 25 -9 41 -2 16 -9 33 -16 37
-7 5 -9 9 -5 9 4 0 3 9 -3 21 -7 11 -14 18 -17 15 -3 -3 -14 5 -24 17 -10 12
-18 18 -19 13 0 -5 -6 -3 -14 3 -21 18 -66 23 -213 25 l-133 1 -9 -27z m230
-58 c12 7 22 6 33 -5 8 -8 16 -10 18 -5 2 6 18 -3 36 -20 18 -16 27 -30 20
-30 -9 0 -9 -3 2 -10 13 -9 13 -10 0 -10 -11 0 -12 -2 -2 -8 10 -7 11 -48 1
-59 -1 -2 -2 -6 -3 -11 -3 -21 -47 -53 -74 -55 -18 -1 -32 -5 -32 -9 0 -11
-54 2 -62 15 -12 18 -9 29 5 21 8 -5 8 -2 -2 9 -11 14 -11 17 0 17 10 0 10 3
1 12 -9 9 -7 15 6 25 9 8 12 12 5 9 -6 -4 -14 -2 -18 4 -3 5 -1 10 6 10 8 0 8
4 -1 15 -9 11 -9 15 -1 15 9 0 9 5 0 21 -9 17 -8 23 2 30 8 5 10 9 4 9 -5 0
-3 5 5 10 9 5 18 6 24 0 5 -5 16 -5 27 0z"/>
<path d="M23830 14816 c-15 -41 6 -63 51 -58 4 1 9 -8 12 -18 3 -13 1 -18 -5
-13 -7 3 -8 1 -4 -6 12 -19 13 -130 1 -123 -5 3 -4 -1 3 -10 10 -13 10 -17 0
-20 -10 -4 -10 -8 1 -21 10 -13 10 -17 1 -17 -10 0 -10 -3 0 -15 10 -12 10
-15 -1 -15 -11 0 -11 -2 1 -10 13 -9 13 -10 0 -10 -13 0 -13 -1 0 -10 13 -9
13 -11 0 -20 -12 -8 -12 -10 -1 -10 11 0 11 -3 1 -15 -7 -8 -9 -15 -4 -15 14
0 8 -121 -6 -130 -7 -4 -21 -5 -33 -2 -13 3 -18 1 -13 -6 3 -6 2 -13 -2 -16
-5 -3 -7 -16 -5 -30 4 -19 11 -24 36 -24 18 -1 46 -2 64 -4 17 -2 30 -1 28 2
-5 9 59 5 73 -3 11 -8 35 18 38 41 4 22 -13 41 -34 38 -21 -4 -45 26 -29 36 7
4 7 11 -2 22 -8 9 -9 16 -4 16 5 0 10 7 10 15 0 8 -5 15 -11 15 -6 0 -4 5 4
10 13 9 13 11 0 20 -13 9 -13 10 0 10 13 0 13 1 0 10 -12 8 -12 10 -1 10 9 0
10 4 4 13 -7 8 -4 18 9 30 10 9 18 14 18 10 0 -5 45 -8 100 -8 55 0 100 3 100
7 0 11 34 -4 47 -21 7 -11 8 -20 2 -28 -7 -7 -6 -14 1 -18 6 -3 7 -11 4 -17
-4 -5 -8 -25 -10 -44 -2 -25 0 -33 9 -28 9 5 8 3 0 -7 -16 -16 -17 -33 -2 -24
6 4 5 -1 -2 -13 -7 -10 -17 -19 -23 -19 -38 1 -43 -4 -42 -35 l1 -33 65 -2
c36 -1 70 -2 75 -3 6 -2 15 -1 20 0 6 1 25 2 43 1 19 0 30 4 27 9 -3 6 -1 10
6 10 8 0 8 4 -1 15 -10 12 -10 15 0 15 10 0 10 3 0 14 -6 8 -18 12 -26 9 -8
-3 -14 0 -14 6 0 6 -6 8 -13 5 -9 -3 -12 7 -11 40 1 24 5 50 9 57 6 8 4 10 -5
4 -10 -6 -12 -4 -7 10 4 9 3 23 -3 30 -8 10 -8 15 1 21 8 5 9 3 4 -6 -5 -9 -4
-11 4 -6 6 4 9 10 7 14 -2 4 -7 24 -10 45 -4 27 -3 36 5 31 8 -4 8 -1 2 12
-10 22 -9 66 2 84 5 9 4 11 -3 6 -7 -4 -12 -1 -12 9 0 9 5 13 11 9 8 -4 8 -1
2 12 -7 17 -9 39 -4 93 1 8 8 11 21 8 11 -3 23 -1 26 4 3 5 8 7 12 5 4 -2 7
11 7 30 0 23 -5 34 -15 35 -69 5 -220 3 -220 -4 0 -4 -6 -5 -12 -1 -10 5 -10
4 -1 -6 6 -7 9 -18 6 -26 -6 -17 17 -42 37 -37 8 2 21 -6 28 -18 8 -11 9 -18
3 -14 -6 3 -11 2 -11 -4 0 -5 5 -13 10 -16 8 -5 8 -11 0 -20 -8 -9 -8 -15 0
-20 6 -4 7 -13 2 -23 -5 -9 -8 -29 -7 -43 l2 -25 -131 0 c-135 0 -169 8 -143
36 10 10 9 11 -3 5 -13 -8 -13 -6 -2 7 10 13 10 17 0 21 -10 4 -10 6 1 6 11 1
11 4 1 16 -10 12 -10 15 0 15 9 0 10 3 1 13 -8 10 -7 17 1 25 9 9 9 12 0 12
-23 0 -1 25 24 26 31 2 31 2 37 42 6 36 18 33 -132 36 -85 1 -94 0 -101 -18z"/>
<path d="M25413 14825 c-9 -10 -8 -53 2 -64 5 -4 21 -8 63 -13 6 -1 10 -3 8
-6 -3 -2 4 -20 14 -40 11 -19 17 -39 14 -43 -3 -5 1 -6 9 -3 8 3 18 0 23 -7 4
-8 3 -10 -4 -5 -17 10 -15 -3 3 -21 8 -8 13 -19 10 -24 -4 -5 1 -9 9 -9 9 0
17 -4 17 -10 2 -11 5 -25 9 -37 1 -5 2 -12 1 -16 -1 -5 2 -6 6 -4 5 3 14 -1
21 -9 7 -8 10 -14 6 -14 -3 0 0 -8 7 -17 12 -14 12 -16 -1 -9 -9 4 -8 1 3 -7
9 -8 17 -20 17 -26 0 -7 5 -9 13 -5 9 6 9 5 0 -7 -7 -8 -9 -26 -6 -39 4 -14 2
-21 -4 -17 -5 3 -10 0 -10 -8 0 -8 3 -12 7 -10 3 2 6 -14 6 -36 0 -38 -5 -43
-44 -42 -13 1 -27 -38 -20 -59 3 -7 18 -14 34 -15 16 -1 43 -4 61 -6 17 -2 30
0 27 5 -4 7 20 5 79 -7 9 -2 17 1 17 7 0 5 3 7 8 5 4 -3 8 10 9 29 2 33 -10
41 -49 35 -8 -1 -11 15 -5 22 1 2 -5 12 -13 22 -8 11 -10 16 -4 12 7 -4 12 3
12 18 0 14 -4 28 -9 31 -5 3 -4 14 2 25 7 15 7 24 -2 35 -9 11 -8 14 7 14 16
0 17 2 4 10 -10 7 -11 10 -2 10 7 0 17 11 22 25 5 14 14 25 20 25 5 0 9 3 8 8
-4 15 14 52 23 46 5 -3 9 -2 8 3 -3 20 2 34 11 28 6 -3 7 1 4 9 -3 9 -1 16 5
16 6 0 11 6 11 13 0 6 15 35 33 62 23 37 39 50 57 51 41 2 42 3 36 19 -3 8 0
15 7 16 7 0 3 4 -8 9 -19 8 -19 9 0 9 15 1 16 4 7 13 -12 12 -221 20 -223 9
-1 -4 -3 -22 -4 -42 -2 -36 -1 -36 32 -33 18 2 33 1 33 -2 0 -14 -32 -64 -40
-64 -6 0 -9 -3 -9 -7 4 -22 -2 -43 -10 -39 -5 4 -12 -7 -16 -23 -3 -16 -13
-35 -21 -41 -7 -7 -11 -16 -8 -21 3 -5 -4 -9 -14 -9 -12 0 -24 11 -32 30 -7
17 -17 30 -22 30 -5 0 -6 5 -3 10 3 6 2 10 -4 10 -10 0 -27 39 -23 53 1 5 -2
6 -8 2 -5 -3 -10 1 -10 9 0 9 -6 16 -12 16 -10 0 -10 2 0 9 11 6 10 10 -4 15
-21 8 -11 19 23 24 38 5 55 31 37 57 -13 18 -26 20 -133 20 -71 0 -122 -4
-128 -10z"/>
<path d="M19316 14264 c-5 -14 -4 -15 9 -4 17 14 19 20 6 20 -5 0 -12 -7 -15
-16z"/>
</g>
</svg>
